<svg width="450" height="138" viewBox="0 0 450 138" fill="none" xmlns="http://www.w3.org/2000/svg">
<path d="M42.3906 137.283H36.6031C35.5878 137.283 35.0463 136.788 34.9786 135.797L33.0494 105.472L22.7437 132.007H19.0377L9.29039 105.472L7.412 135.797C7.34431 136.788 6.8028 137.283 5.78746 137.283H0V134.619L3.45217 134.261L5.27978 102.962L2.43682 102.552V99.8886H9.89959C10.7796 99.8886 11.3718 100.315 11.6764 101.169L20.8653 127.089L30.6634 101.169C30.968 100.315 31.5602 99.8886 32.4402 99.8886H39.903V102.552L37.06 102.962L38.9384 134.261L42.3906 134.619V137.283Z" fill="#303179"/>
<path d="M66.7235 132.212V131.494C64.5236 135.831 61.0714 138 56.367 138C54.0994 138 52.2887 137.3 50.9349 135.9C49.5811 134.5 48.9042 132.587 48.9042 130.163C48.9042 126.85 50.258 124.357 52.9656 122.684C55.6732 121.01 60.2591 120.174 66.7235 120.174V118.022C66.7235 115.085 66.1989 113.071 65.1497 111.978C64.1005 110.885 62.3914 110.339 60.0222 110.339C57.6869 110.339 55.064 111.158 52.1533 112.797L50.8334 109.724C54.3194 108.085 57.6362 107.265 60.7837 107.265C65.6912 107.265 68.7542 109.007 69.9726 112.49C70.4803 113.924 70.7341 115.666 70.7341 117.715V131.751C70.7341 133.629 71.4448 134.568 72.8663 134.568C73.3402 134.568 74.034 134.465 74.9478 134.261L75.4047 137.334C74.0847 137.778 72.7986 138 71.5464 138C68.3311 138 66.7235 136.07 66.7235 132.212ZM66.7235 122.786C57.3823 122.786 52.7118 125.143 52.7118 129.855C52.7118 131.426 53.1348 132.656 53.9809 133.543C54.8609 134.397 56.0793 134.824 57.6362 134.824C60.073 134.824 62.1714 133.834 63.9313 131.853C65.6912 129.872 66.622 127.055 66.7235 123.401V122.786Z" fill="#303179"/>
<path d="M88.2642 122.94V134.261L93.341 134.619V137.283H80.6999V134.619L84.2536 134.261V111.056L80.6999 110.646V107.982H86.0813C87.1304 107.982 87.655 108.511 87.655 109.57V115.922C88.5688 113.566 89.9396 111.568 91.7672 109.929C93.6286 108.255 95.8624 107.367 98.4684 107.265V110.8C95.6255 110.902 93.2056 112.063 91.2087 114.283C89.2457 116.503 88.2642 119.388 88.2642 122.94Z" fill="#303179"/>
<path d="M123.495 133.441C124.07 134.329 124.747 134.773 125.526 134.773C126.338 134.773 127.083 134.67 127.759 134.465L128.216 137.334C127.133 137.778 125.983 138 124.764 138C122.97 138 121.549 137.163 120.5 135.49L112.479 122.889H109.026V134.261L113.088 134.619V137.283H101.462V134.619L105.016 134.261V100.913L101.462 100.503V97.8396H107.453C108.502 97.8396 109.026 98.3689 109.026 99.4276V120.122H113.037L120.703 109.007C121.143 108.324 121.769 107.982 122.581 107.982H126.693V110.646L123.495 111.056L115.982 121.762L123.495 133.441Z" fill="#303179"/>
<path d="M156.267 123.503H136.265C136.265 127.294 137.213 130.248 139.108 132.365C140.597 134.039 142.628 134.875 145.2 134.875C147.806 134.875 150.598 134.107 153.577 132.57L154.846 135.541C151.427 137.18 148.381 138 145.708 138C143.068 138 140.885 137.573 139.159 136.719C137.466 135.831 136.13 134.653 135.148 133.185C133.253 130.214 132.305 126.85 132.305 123.094C132.305 118.722 133.219 115.051 135.047 112.08C135.994 110.578 137.28 109.399 138.905 108.546C140.563 107.692 142.492 107.265 144.692 107.265C148.314 107.265 151.14 108.511 153.17 111.004C155.235 113.497 156.267 116.827 156.267 120.993V123.503ZM152.257 120.635C152.257 117.527 151.58 115.051 150.226 113.207C148.872 111.329 146.926 110.39 144.388 110.39C141.849 110.39 139.937 111.363 138.651 113.31C137.365 115.256 136.603 117.698 136.367 120.635H152.257Z" fill="#303179"/>
<path d="M161.132 110.8V107.982H165.548V101.323L169.559 100.401V107.982H175.093V110.8H169.559V131.751C169.559 133.595 170.304 134.517 171.793 134.517C172.774 134.517 173.722 134.329 174.636 133.953L175.093 137.078C173.502 137.693 171.894 138 170.27 138C168.679 138 167.495 137.539 166.716 136.617C165.938 135.661 165.548 134.158 165.548 132.109V110.8H161.132Z" fill="#303179"/>
<path d="M191.163 120.02H194.158C199.438 120.02 202.077 117.134 202.077 111.363C202.077 105.592 199.438 102.706 194.158 102.706H187.964V134.261L192.381 134.67V137.283H180.755V134.619L183.903 134.261V102.962L180.755 102.552V99.8886H194.158C198.05 99.8886 200.994 100.862 202.991 102.808C205.022 104.755 206.037 107.641 206.037 111.465C206.037 115.256 205.039 118.176 203.042 120.225C201.045 122.24 198.084 123.247 194.158 123.247H191.163V120.02Z" fill="#303179"/>
<path d="M218.178 99.4276V131.751C218.178 133.629 218.905 134.568 220.361 134.568C220.868 134.568 221.579 134.465 222.493 134.261L222.95 137.334C221.63 137.778 220.327 138 219.041 138C215.792 138 214.167 136.07 214.167 132.212V100.913L211.121 100.503V97.8396H216.655C217.67 97.8396 218.178 98.3689 218.178 99.4276Z" fill="#303179"/>
<path d="M245.598 132.212V131.494C243.398 135.831 239.946 138 235.242 138C232.974 138 231.164 137.3 229.81 135.9C228.456 134.5 227.779 132.587 227.779 130.163C227.779 126.85 229.133 124.357 231.84 122.684C234.548 121.01 239.134 120.174 245.598 120.174V118.022C245.598 115.085 245.074 113.071 244.025 111.978C242.975 110.885 241.266 110.339 238.897 110.339C236.562 110.339 233.939 111.158 231.028 112.797L229.708 109.724C233.194 108.085 236.511 107.265 239.659 107.265C244.566 107.265 247.629 109.007 248.847 112.49C249.355 113.924 249.609 115.666 249.609 117.715V131.751C249.609 133.629 250.32 134.568 251.741 134.568C252.215 134.568 252.909 134.465 253.823 134.261L254.28 137.334C252.96 137.778 251.674 138 250.421 138C247.206 138 245.598 136.07 245.598 132.212ZM245.598 122.786C236.257 122.786 231.587 125.143 231.587 129.855C231.587 131.426 232.01 132.656 232.856 133.543C233.736 134.397 234.954 134.824 236.511 134.824C238.948 134.824 241.046 133.834 242.806 131.853C244.566 129.872 245.497 127.055 245.598 123.401V122.786Z" fill="#303179"/>
<path d="M271.353 138C269.221 138 267.342 137.539 265.718 136.617C264.127 135.695 262.892 134.448 262.012 132.877C260.252 129.872 259.372 126.389 259.372 122.428C259.372 117.373 260.675 113.429 263.281 110.595C264.195 109.604 265.396 108.802 266.885 108.187C268.374 107.572 270.067 107.265 271.962 107.265C275.042 107.265 278.105 108.05 281.151 109.621L279.831 112.592C277.259 111.124 274.636 110.39 271.962 110.39C270.27 110.39 268.831 110.765 267.647 111.517C266.462 112.234 265.565 113.224 264.956 114.488C264.381 115.717 263.958 116.981 263.687 118.278C263.45 119.576 263.332 120.959 263.332 122.428C263.332 123.896 263.45 125.296 263.687 126.628C263.924 127.96 264.313 129.275 264.855 130.572C265.396 131.87 266.225 132.912 267.342 133.697C268.459 134.483 269.796 134.875 271.353 134.875C274.805 134.875 277.191 133.099 278.511 129.548L281.76 130.624C279.899 135.541 276.43 138 271.353 138Z" fill="#303179"/>
<path d="M310.8 123.503H290.797C290.797 127.294 291.745 130.248 293.64 132.365C295.13 134.039 297.16 134.875 299.732 134.875C302.338 134.875 305.131 134.107 308.109 132.57L309.378 135.541C305.96 137.18 302.914 138 300.24 138C297.6 138 295.417 137.573 293.691 136.719C291.999 135.831 290.662 134.653 289.681 133.185C287.785 130.214 286.838 126.85 286.838 123.094C286.838 118.722 287.751 115.051 289.579 112.08C290.527 110.578 291.813 109.399 293.437 108.546C295.096 107.692 297.025 107.265 299.225 107.265C302.846 107.265 305.672 108.511 307.703 111.004C309.767 113.497 310.8 116.827 310.8 120.993V123.503ZM306.789 120.635C306.789 117.527 306.112 115.051 304.758 113.207C303.405 111.329 301.459 110.39 298.92 110.39C296.382 110.39 294.47 111.363 293.183 113.31C291.897 115.256 291.136 117.698 290.899 120.635H306.789Z" fill="#303179"/>
<path d="M68.0117 93.2294H44.472L36.8529 76.0178L31.963 67.9857H20.4774V76.0178L21.6146 93.2294H2.9648L4.10199 76.0178V23.8093L2.9648 7.17148H32.6453C42.7283 7.17148 50.1958 9.69585 55.0478 14.7446C59.9756 19.7168 62.4395 27.2899 62.4395 37.4639C62.4395 43.66 61.1507 49.053 58.5731 53.6427C56.0713 58.2325 52.5839 61.7513 48.111 64.1992L55.389 76.0178L68.0117 93.2294ZM20.4774 52.1511H27.8691C34.3132 52.1511 38.824 51.0801 41.4016 48.9383C44.0551 46.7964 45.3818 42.9716 45.3818 37.4639C45.3818 33.6391 44.8511 30.694 43.7897 28.6286C42.7283 26.5632 40.9468 25.1098 38.4449 24.2683C36.019 23.4269 32.5695 23.0061 28.0966 23.0061H20.4774V52.1511Z" fill="#303179"/>
<path d="M102.323 94.6063C92.1639 94.6063 84.7343 91.5847 80.0339 85.5415C75.3335 79.4984 72.9834 70.5483 72.9834 58.6915C72.9834 47.1406 75.4473 38.2288 80.3751 31.9562C85.3787 25.6835 92.6946 22.5472 102.323 22.5472C111.799 22.5472 118.812 24.9568 123.361 29.776C127.985 34.5953 130.677 42.2066 131.435 52.6101L128.364 64.6582H89.5862C89.8895 68.4065 90.6097 71.2751 91.7469 73.2639C92.8841 75.2528 94.514 76.6298 96.6368 77.3947C98.8353 78.1597 101.868 78.5422 105.734 78.5422C110.814 78.5422 115.325 78.0832 119.267 77.1652C123.285 76.2473 126.014 75.0616 127.454 73.6082L129.388 74.6409L125.862 88.6396C122.982 90.858 119.722 92.3879 116.083 93.2294C112.444 94.1473 107.857 94.6063 102.323 94.6063ZM115.287 52.6101C115.287 47.7908 114.263 44.2338 112.216 41.9389C110.169 39.5675 107.023 38.3818 102.778 38.3818C98.3047 38.3818 95.0447 39.4528 92.9978 41.5946C91.0267 43.66 89.8516 47.3318 89.4725 52.6101H115.287Z" fill="#303179"/>
<path d="M138.716 28.9728L145.994 24.3831L149.406 10.0401H161.915V24.3831H179.882V39.8735H161.915V70.1659C161.915 72.8432 162.483 74.9086 163.62 76.362C164.833 77.8155 166.577 78.5422 168.852 78.5422C171.278 78.5422 173.476 78.0832 175.447 77.1652C177.494 76.2473 179.162 74.9851 180.451 73.3787L182.839 74.5261L179.314 88.6396C176.205 91.011 173.628 92.5792 171.581 93.3441C169.61 94.1856 167.184 94.6063 164.303 94.6063C159.906 94.6063 156.38 93.7266 153.727 91.9672C151.074 90.1313 149.102 87.2244 147.814 83.2467C146.601 79.1924 145.994 73.6847 145.994 66.7235V39.8735H138.716V28.9728Z" fill="#303179"/>
<path d="M188.685 74.0672C188.685 69.7069 189.708 65.7674 191.755 62.2485C193.878 58.6532 196.645 55.8229 200.057 53.7575C203.544 51.6921 207.297 50.6594 211.315 50.6594C218.289 50.6594 223.71 51.6921 227.576 53.7575V47.6761C227.576 44.7692 226.401 42.5126 224.051 40.9062C221.777 39.2998 218.555 38.4966 214.385 38.4966C209.912 38.4966 205.932 39.2233 202.445 40.6767C199.033 42.1301 196.418 44.3102 194.598 47.2171L193.347 46.9876L195.394 30.0055C197.972 27.7106 201.156 25.9512 204.946 24.7273C208.813 23.4269 212.717 22.7766 216.659 22.7766C224.847 22.7766 231.367 24.7273 236.219 28.6286C241.071 32.5299 243.497 37.8463 243.497 44.578V76.1325L244.634 93.2294H227.918L227.576 86.9185C226.06 89.3663 223.672 91.3552 220.412 92.8852C217.228 94.3386 213.703 95.0653 209.836 95.0653C203.392 95.0653 198.237 93.1911 194.371 89.4428C190.58 85.6945 188.685 80.5693 188.685 74.0672ZM205.06 73.0345C205.06 75.6353 205.705 77.6625 206.993 79.1159C208.358 80.4928 210.329 81.1813 212.907 81.1813C215.712 81.1813 218.365 80.6458 220.867 79.5749C223.445 78.4274 225.681 76.821 227.576 74.7556V66.953C223.331 64.8876 218.555 63.8549 213.248 63.8549C210.443 63.8549 208.358 64.6199 206.993 66.1498C205.705 67.6797 205.06 69.9746 205.06 73.0345Z" fill="#303179"/>
<path d="M265.358 18.0722C262.478 18.0722 260.014 17.2689 257.967 15.6625C255.996 13.9796 255.01 11.8377 255.01 9.23687C255.01 6.55952 255.996 4.41763 257.967 2.81122C260.014 1.12831 262.478 0.28685 265.358 0.28685C268.239 0.28685 270.665 1.12831 272.636 2.81122C274.683 4.41763 275.707 6.55952 275.707 9.23687C275.707 11.8377 274.683 13.9796 272.636 15.6625C270.665 17.2689 268.239 18.0722 265.358 18.0722ZM257.284 76.0178V41.0209L256.147 24.3831H274.342L273.205 41.0209V76.0178L274.342 93.2294H256.147L257.284 76.0178Z" fill="#303179"/>
<path d="M287.94 76.0178V18.0722L286.803 1.43429H304.998L303.861 18.0722V76.0178L304.998 93.2294H286.803L287.94 76.0178Z" fill="#303179"/>
<g clip-path="url(#clip0_158_6890)">
<path d="M315.078 16.9156L323.372 68.1387C324.609 75.7567 331.572 81.724 339.222 81.724H369.061L358.575 16.9156H315.078Z" fill="#F5CAC2"/>
<path d="M358.575 16.9156L369.061 81.7237H412.615L402.129 16.9156H358.575Z" fill="#ED7966"/>
<path d="M448.866 28.1927V16.9156H413.453L415.278 28.1927H448.866Z" fill="#F5CAC2"/>
<path d="M448.866 81.7237V70.4466H422.115L423.94 81.7237H448.866Z" fill="#F5CAC2"/>
<path d="M448.866 54.8399V43.5628H417.765L419.589 54.8399H448.866Z" fill="#F5CAC2"/>
<path d="M324.725 122.19C324.725 130.512 331.435 137.283 339.683 137.283V107.097C331.435 107.097 324.725 113.868 324.725 122.19Z" fill="#303179"/>
<path d="M396.96 122.19C396.96 130.512 403.67 137.283 411.918 137.283V107.097C403.67 107.097 396.96 113.868 396.96 122.19Z" fill="#303179"/>
<path d="M339.683 107.097V137.283C347.93 137.283 354.64 130.512 354.64 122.19C354.64 113.868 347.93 107.097 339.683 107.097Z" fill="#141850"/>
<path d="M411.918 107.097V137.283C420.166 137.283 426.876 130.512 426.876 122.19C426.876 113.868 420.166 107.097 411.918 107.097Z" fill="#141850"/>
<path d="M413.453 16.9156L412.541 11.2771H419.624V0H399.392L402.129 16.9156L412.615 81.7237L413.984 90.1815H330.312V101.459H427.133L423.94 81.7237L422.115 70.4466L419.589 54.8399L417.765 43.5628L415.278 28.1927L413.453 16.9156Z" fill="#303179"/>
</g>
<defs>
<clipPath id="clip0_158_6890">
<rect width="136.056" height="137.283" fill="white" transform="translate(313.944)"/>
</clipPath>
</defs>
</svg>
