<svg width="640" height="474" viewBox="0 0 640 474" fill="none" xmlns="http://www.w3.org/2000/svg">
<g clip-path="url(#clip0_504_6702)">
<path d="M460.55 281.193L465.585 278.088C466.064 277.785 466.535 277.462 467.021 277.158C456.222 275.302 446.382 269.817 439.129 261.609C431.875 253.401 427.643 242.964 427.134 232.025C426.764 224.502 428.187 216.998 431.286 210.132C434.171 203.708 438.431 197.995 443.766 193.395C449.101 188.795 455.38 185.421 462.161 183.51L461.912 203.315L472.797 181.759C472.841 181.752 472.887 181.752 472.932 181.759C479.239 181.465 485.543 182.415 491.483 184.556C497.424 186.696 502.884 189.985 507.552 194.235C512.22 198.485 516.005 203.612 518.691 209.324C521.377 215.036 522.91 221.221 523.204 227.525C523.245 228.442 523.204 229.344 523.204 230.22C526.992 225.902 530.43 221.274 532.708 216.202C537.318 205.929 537.426 194.295 537.041 180.156C536.313 152.133 535.107 123.901 533.53 95.7498C522.165 94.4883 511.622 89.2176 503.796 80.8846C495.97 72.5516 491.374 61.7026 490.833 50.2865C490.765 48.8112 490.786 47.3629 490.833 45.9214C490.833 45.5644 490.833 45.2006 490.887 44.8436C490.981 43.4491 491.109 42.0682 491.325 40.7075C491.325 40.4784 491.406 40.2629 491.446 40.0338C491.644 38.8797 491.88 37.739 492.154 36.6118C492.262 36.1941 492.363 35.7698 492.477 35.3521C492.814 34.1261 493.151 32.9203 493.616 31.728C493.758 31.3305 493.926 30.9466 494.075 30.5559C494.418 29.6801 494.789 28.8179 495.18 27.9624C495.389 27.5111 495.591 27.0665 495.813 26.6151C495.867 26.5006 495.915 26.3861 495.975 26.2716C501.05 16.2536 509.476 8.32964 519.79 3.87704C530.104 -0.575552 541.652 -1.27523 552.429 1.89963L552.105 27.6727L562.889 6.38601C571.734 11.4465 578.729 19.201 582.852 28.517C586.975 37.8331 588.009 48.2225 585.804 58.168H585.858C585.784 58.5115 585.676 58.8416 585.596 59.1784C585.447 59.8116 585.286 60.4381 585.11 61.0646C584.881 61.8662 584.625 62.6544 584.362 63.4425C584.16 64.0286 583.964 64.6281 583.742 65.2074C583.419 66.0562 583.068 66.8847 582.677 67.7133C582.461 68.1983 582.266 68.6901 582.003 69.1684C581.388 70.4078 580.714 71.6204 579.981 72.806C579.732 73.2169 579.449 73.6076 579.186 74.0185C578.674 74.8134 578.155 75.6015 577.595 76.3695C577.252 76.841 576.881 77.2923 576.517 77.7571C575.991 78.4308 575.452 79.1044 574.893 79.7174C574.495 80.1687 574.091 80.6133 573.673 81.0647C573.086 81.6844 572.48 82.2839 571.853 82.8767C571.442 83.2742 571.024 83.6716 570.593 84.0488C569.885 84.6753 569.143 85.2749 568.395 85.8609C568.018 86.1573 567.654 86.4672 567.263 86.7501C566.126 87.5944 564.951 88.387 563.738 89.128C563.509 89.2627 563.266 89.3773 563.064 89.512C562.053 90.1115 561.042 90.6706 559.957 91.1961C559.505 91.4184 559.034 91.6137 558.569 91.8225C557.699 92.2132 556.823 92.5905 555.927 92.934C555.408 93.1294 554.875 93.3113 554.343 93.4931C553.46 93.7963 552.563 94.0725 551.647 94.3217C551.108 94.4699 550.575 94.6181 550.029 94.7461C549.045 94.9819 548.041 95.1772 547.03 95.3456C546.963 95.3456 546.902 95.3456 546.834 95.386C547.499 107.26 548.09 119.14 548.607 131.028C551.474 125.146 555.513 119.911 560.476 115.645C565.439 111.379 571.222 108.172 577.47 106.22C583.718 104.267 590.3 103.612 596.81 104.292C603.321 104.973 609.624 106.976 615.332 110.179L606.833 133.453L624.316 116.673C633.675 125.246 639.25 137.18 639.818 149.856C640.04 154.304 639.63 158.76 638.598 163.093C636.402 172.468 631.437 180.967 624.348 187.487C617.26 194.008 608.374 198.249 598.844 199.66C589.314 201.07 579.58 199.586 570.904 195.4C562.229 191.213 555.012 184.518 550.191 176.181C550.191 177.387 550.279 178.6 550.312 179.805C550.629 192.281 551.027 207.801 544.806 221.665C540.593 231.062 533.806 238.694 527.1 245.532C522.739 249.984 518.217 254.289 513.58 258.458C509.021 264.577 503.069 269.524 496.218 272.888C488.602 278.753 480.716 284.245 472.561 289.365L467.607 292.558C463.031 295.394 458.34 298.304 453.736 301.315C454.545 301.234 455.347 301.146 456.169 301.113C466.359 300.636 476.437 303.408 484.946 309.03C493.456 314.652 499.957 322.833 503.51 332.389L473.464 356.835L506.489 349.176C506.48 357.303 504.411 365.294 500.473 372.405C496.536 379.515 490.859 385.511 483.974 389.834C477.089 394.157 469.22 396.665 461.102 397.123C452.984 397.582 444.883 395.977 437.554 392.457C438.295 393.387 439.043 394.31 439.785 395.232C441.261 397.071 442.73 398.897 444.166 400.709C463.711 425.451 469.157 448.948 459.472 466.859L447.704 460.5C457.14 443.067 442.986 420.756 433.665 408.995C432.256 407.216 430.814 405.424 429.358 403.606C416.869 388.112 402.715 370.517 403.073 348.954C403.578 316.485 435.181 296.903 460.55 281.193Z" fill="#ED7966"/>
<path d="M307.002 474C476.555 474 614.004 467.667 614.004 459.854C614.004 452.041 476.555 445.708 307.002 445.708C137.45 445.708 0 452.041 0 459.854C0 467.667 137.45 474 307.002 474Z" fill="#3F3D56"/>
<path d="M555.023 454.579C557.045 450.867 554.754 446.32 552.139 443.006C549.524 439.692 546.336 436.27 546.403 432.033C546.498 425.97 552.934 422.393 558.083 419.18C561.897 416.793 565.414 413.964 568.564 410.753C569.886 409.517 570.979 408.058 571.792 406.442C572.851 404.07 572.824 401.376 572.756 398.776C572.531 390.126 572.105 381.486 571.476 372.854" stroke="#3F3D56" stroke-width="4" stroke-miterlimit="10"/>
<path d="M581.255 372.396C581.18 370.814 580.708 369.275 579.884 367.922C579.06 366.568 577.909 365.443 576.537 364.65L574.421 368.839L574.482 363.774C573.034 363.34 571.504 363.261 570.019 363.542C568.534 363.822 567.139 364.456 565.95 365.388C564.761 366.32 563.813 367.524 563.187 368.898C562.56 370.272 562.273 371.777 562.35 373.285C562.468 375.787 563.575 378.139 565.428 379.824C566.346 380.658 567.418 381.304 568.586 381.724C569.753 382.144 570.991 382.33 572.23 382.272C573.47 382.213 574.685 381.912 575.808 381.384C576.93 380.856 577.937 380.112 578.772 379.195C579.607 378.278 580.253 377.206 580.673 376.039C581.094 374.873 581.28 373.635 581.221 372.396H581.255Z" fill="#ED7966"/>
<path d="M564.385 436.391C563.395 438.314 561.773 439.838 559.792 440.709C557.811 441.579 555.59 441.742 553.503 441.17C551.416 440.599 549.589 439.328 548.328 437.571C547.067 435.813 546.448 433.676 546.576 431.516C546.704 429.357 547.571 427.308 549.031 425.712C550.491 424.115 552.456 423.069 554.596 422.748C556.736 422.427 558.922 422.851 560.786 423.95C562.65 425.048 564.08 426.753 564.837 428.779L558.932 433.582L565.43 432.073C565.431 433.575 565.072 435.056 564.385 436.391Z" fill="#ED7966"/>
<path d="M559.714 418.008C558.473 418.068 557.233 417.882 556.064 417.461C554.895 417.04 553.82 416.393 552.902 415.556C551.984 414.719 551.24 413.709 550.714 412.585C550.187 411.46 549.888 410.242 549.834 409.001C549.759 407.522 550.038 406.046 550.649 404.697C551.216 403.433 552.052 402.309 553.1 401.404C554.148 400.498 555.382 399.833 556.715 399.456L556.668 403.356L558.811 399.112C561.318 398.995 563.769 399.879 565.625 401.568C567.48 403.257 568.588 405.613 568.705 408.119C568.823 410.625 567.939 413.074 566.249 414.929C564.559 416.783 562.201 417.891 559.694 418.008H559.714Z" fill="#ED7966"/>
<path d="M582.677 402.71C580.175 402.828 577.728 401.947 575.875 400.262C574.022 398.577 572.914 396.225 572.797 393.723C572.679 391.222 573.559 388.777 575.246 386.925C576.932 385.073 579.285 383.966 581.787 383.848C583.556 383.761 585.314 384.177 586.856 385.047L585.184 389.628L588.622 386.327C590.466 388.012 591.567 390.36 591.682 392.854C591.725 393.728 591.643 394.604 591.439 395.455C590.967 397.452 589.857 399.241 588.275 400.551C586.694 401.86 584.729 402.618 582.677 402.71Z" fill="#ED7966"/>
<path opacity="0.1" d="M579.981 374.889C577.798 375.131 575.674 375.812 573.484 375.946C571.294 376.081 568.887 375.556 567.499 373.851C566.751 372.935 566.38 371.777 565.747 370.78C565.15 369.848 564.333 369.078 563.367 368.536C562.797 369.729 562.483 371.028 562.447 372.349C562.411 373.67 562.653 374.984 563.158 376.206C563.663 377.428 564.419 378.53 565.377 379.441C566.336 380.352 567.475 381.051 568.721 381.493C569.967 381.936 571.293 382.111 572.611 382.009C573.93 381.906 575.212 381.528 576.375 380.898C577.538 380.268 578.555 379.401 579.361 378.353C580.167 377.305 580.743 376.1 581.053 374.815C580.689 374.828 580.332 374.855 579.981 374.889Z" fill="black"/>
<path opacity="0.1" d="M582.677 402.71C581.046 402.792 579.421 402.45 577.961 401.717C576.502 400.984 575.258 399.885 574.351 398.527C573.444 397.169 572.905 395.599 572.788 393.971C572.67 392.342 572.977 390.711 573.679 389.237C574.43 389.744 575.076 390.391 575.58 391.143C576.254 392.161 576.658 393.333 577.454 394.269C578.923 396 581.444 396.566 583.729 396.458C586.013 396.351 588.211 395.711 590.468 395.502C590.779 395.502 591.102 395.448 591.419 395.441C590.951 397.438 589.844 399.228 588.266 400.539C586.689 401.851 584.727 402.613 582.677 402.71Z" fill="black"/>
<path opacity="0.1" d="M559.714 418.008C558.473 418.068 557.233 417.882 556.064 417.461C554.895 417.04 553.82 416.393 552.902 415.556C551.984 414.719 551.24 413.709 550.714 412.585C550.187 411.46 549.888 410.242 549.834 409.001C549.759 407.522 550.038 406.046 550.649 404.697C551.434 405.21 552.119 405.86 552.671 406.617C553.406 407.654 553.864 408.846 554.693 409.803C556.291 411.581 558.973 412.208 561.393 412.147C563.812 412.087 565.989 411.521 568.321 411.346C567.746 413.206 566.611 414.843 565.071 416.035C563.53 417.227 561.66 417.916 559.714 418.008Z" fill="black"/>
<path opacity="0.1" d="M564.385 436.391C563.876 437.523 563.149 438.544 562.246 439.395C561.342 440.246 560.28 440.911 559.119 441.351C557.958 441.792 556.722 442 555.481 441.963C554.24 441.926 553.018 441.646 551.886 441.137C550.754 440.628 549.732 439.902 548.881 438.999C548.029 438.095 547.364 437.034 546.923 435.874C546.482 434.714 546.274 433.478 546.311 432.238C546.348 430.997 546.629 429.776 547.138 428.644C547.914 429.16 548.613 429.784 549.214 430.497C550.11 431.595 550.703 432.834 551.748 433.865C553.682 435.758 556.803 436.56 559.58 436.614C561.184 436.635 562.789 436.56 564.385 436.391Z" fill="black"/>
<path d="M540.762 450.302C540.762 450.302 548.223 450.073 550.474 448.469C552.725 446.866 561.932 444.953 562.518 447.526C563.104 450.1 573.74 460.325 565.308 460.366C556.877 460.406 545.722 459.018 543.478 457.671C541.234 456.324 540.762 450.302 540.762 450.302Z" fill="#656380"/>
<path opacity="0.2" d="M565.457 459.47C557.032 459.537 545.871 458.123 543.626 456.775C541.921 455.738 541.234 451.999 541.011 450.275H540.762C540.762 450.275 541.234 456.29 543.458 457.685C545.682 459.079 556.857 460.433 565.288 460.379C567.721 460.379 568.564 459.49 568.517 458.21C568.2 458.971 567.27 459.456 565.457 459.47Z" fill="black"/>
<path d="M131.03 433.798C126.137 424.744 131.704 413.656 138.067 405.586C144.429 397.516 152.22 389.123 152.052 378.836C151.809 364.057 136.119 355.333 123.583 347.499C114.28 341.685 105.699 334.79 98.0182 326.96C94.9381 323.814 91.9523 320.459 90.1595 316.445C87.5714 310.665 87.6388 304.097 87.8073 297.765C88.3465 276.658 89.3889 255.591 90.9346 234.565" stroke="#3F3D56" stroke-width="4" stroke-miterlimit="10"/>
<path d="M67.0956 233.413C67.2802 229.557 68.431 225.809 70.4425 222.513C72.4539 219.218 75.2614 216.48 78.6074 214.551L83.7701 224.757L83.6151 212.402C88.3054 211.021 93.3135 211.165 97.9164 212.814C102.519 214.463 106.479 217.532 109.223 221.576C111.967 225.621 113.354 230.433 113.184 235.317C113.014 240.201 111.295 244.905 108.275 248.749C105.256 252.593 101.092 255.378 96.3858 256.703C91.6792 258.027 86.6732 257.823 82.0906 256.118C77.5079 254.414 73.5858 251.298 70.8906 247.221C68.1953 243.143 66.8664 238.315 67.0956 233.433V233.413Z" fill="#ED7966"/>
<path d="M108.222 389.399C110.541 393.915 114.287 397.539 118.879 399.709C123.47 401.879 128.65 402.472 133.613 401.397C138.577 400.321 143.046 397.638 146.327 393.763C149.607 389.888 151.516 385.038 151.755 379.968C151.916 376.78 151.404 373.595 150.252 370.618C148.569 366.252 145.595 362.501 141.727 359.865C137.859 357.228 133.28 355.831 128.599 355.858C123.917 355.885 119.354 357.335 115.517 360.016C111.68 362.697 108.75 366.482 107.117 370.867L121.52 382.575L105.675 378.89C105.668 382.547 106.542 386.151 108.222 389.399Z" fill="#ED7966"/>
<path d="M119.606 344.656C125.261 344.915 130.813 343.086 135.205 339.518C139.598 335.95 142.525 330.892 143.428 325.307C144.331 319.722 143.148 314.001 140.104 309.231C137.06 304.462 132.367 300.977 126.919 299.442L127.04 308.934L121.85 298.607H121.79C115.679 298.322 109.706 300.475 105.183 304.592C100.66 308.709 97.9596 314.453 97.6745 320.56C97.3894 326.668 99.5434 332.638 103.663 337.158C107.782 341.679 113.529 344.378 119.64 344.663L119.606 344.656Z" fill="#ED7966"/>
<path d="M63.6246 307.425C67.1949 307.599 70.7567 306.941 74.0289 305.503C77.3012 304.065 80.1943 301.887 82.4799 299.14C84.7654 296.393 86.381 293.153 87.1989 289.675C88.0168 286.197 88.0148 282.577 87.193 279.1C86.3711 275.623 84.7519 272.385 82.4633 269.641C80.1746 266.897 77.279 264.722 74.0052 263.288C70.7313 261.853 67.1688 261.199 63.5987 261.377C60.0286 261.555 56.5488 262.56 53.4339 264.312L57.4778 275.474L49.1271 267.411C46.8947 269.441 45.0849 271.892 43.8012 274.622C42.5175 277.352 41.785 280.309 41.6458 283.322C41.5388 285.455 41.7362 287.591 42.2322 289.668C43.3785 294.551 46.0878 298.927 49.9487 302.132C53.8095 305.337 58.6111 307.195 63.6246 307.425Z" fill="#ED7966"/>
<path opacity="0.1" d="M70.196 239.556C75.5205 240.142 80.6967 241.793 86.0347 242.123C91.3727 242.453 97.2432 241.18 100.62 237.03C102.44 234.794 103.349 231.965 104.886 229.526C106.342 227.254 108.338 225.377 110.696 224.063C112.164 226.984 112.994 230.184 113.13 233.45C113.267 236.716 112.706 239.974 111.487 243.007C110.267 246.04 108.416 248.779 106.056 251.043C103.696 253.306 100.882 255.042 97.7994 256.135C94.717 257.229 91.4372 257.654 88.1778 257.383C84.9183 257.113 81.7537 256.153 78.8939 254.566C76.0342 252.98 73.5447 250.804 71.5907 248.182C69.6368 245.561 68.263 242.554 67.5607 239.361C68.4571 239.402 69.3333 239.462 70.196 239.556Z" fill="black"/>
<path opacity="0.1" d="M63.6246 307.425C67.5987 307.608 71.5527 306.761 75.1028 304.967C78.6529 303.172 81.6785 300.491 83.8861 297.183C86.0936 293.875 87.4081 290.053 87.7019 286.088C87.9957 282.122 87.2589 278.148 85.563 274.552C83.7319 275.782 82.1572 277.356 80.9259 279.186C79.2814 281.665 78.2906 284.528 76.3563 286.805C72.7639 291.022 66.6306 292.403 61.0635 292.153C55.4963 291.904 50.1246 290.314 44.5844 289.809C43.8161 289.742 43.0342 289.688 42.2592 289.668C43.4042 294.547 46.1095 298.92 49.9649 302.124C53.8204 305.329 58.6159 307.189 63.6246 307.425Z" fill="black"/>
<path opacity="0.1" d="M119.606 344.656C123.541 344.841 127.458 344.015 130.984 342.257C134.509 340.498 137.524 337.867 139.742 334.612C141.961 331.358 143.308 327.591 143.655 323.668C144.002 319.746 143.338 315.8 141.726 312.207C139.827 313.468 138.176 315.067 136.854 316.923C135.061 319.449 133.942 322.359 131.846 324.69C127.957 329.021 121.419 330.55 115.522 330.409C109.813 330.288 104.313 328.887 98.6383 328.449C100.043 332.976 102.81 336.961 106.562 339.861C110.314 342.761 114.868 344.436 119.606 344.656Z" fill="black"/>
<path opacity="0.1" d="M108.222 389.399C110.541 393.915 114.287 397.539 118.879 399.709C123.47 401.879 128.65 402.472 133.614 401.397C138.577 400.321 143.046 397.638 146.327 393.763C149.608 389.888 151.516 385.038 151.755 379.968C151.916 376.78 151.404 373.595 150.252 370.618C148.355 371.864 146.652 373.382 145.198 375.125C143.007 377.819 141.558 380.823 139.024 383.316C134.306 387.937 126.697 389.85 119.923 390.052C116.013 390.066 112.106 389.847 108.222 389.399Z" fill="black"/>
<path d="M290.638 447.257L201.671 465.445L199.649 465.243L121.466 457.361V358.338L217.173 342.171L286.594 350.254L286.614 350.692L286.621 350.907L290.638 447.257Z" fill="#303179"/>
<path opacity="0.1" d="M290.638 447.257L201.671 465.445L199.649 465.243V363.727L286.614 350.692L290.638 447.257Z" fill="black"/>
<path opacity="0.05" d="M286.621 350.908L286.594 350.928L199.649 363.727L121.466 358.338L217.173 342.171L286.594 350.254L286.614 350.692L286.621 350.908Z" fill="black"/>
<path d="M388.366 451.299L299.4 469.487L297.378 469.285L219.195 461.403V362.379L314.901 346.212L384.322 354.296L384.342 354.734L384.349 354.949L388.366 451.299Z" fill="#3F3D56"/>
<path opacity="0.1" d="M388.366 451.299L299.4 469.487L297.378 469.285V367.768L384.342 354.734L388.366 451.299Z" fill="black"/>
<path opacity="0.05" d="M384.349 354.949L384.322 354.969L297.378 367.768L219.195 362.379L314.901 346.212L384.322 354.296L384.342 354.734L384.349 354.949Z" fill="black"/>
<path d="M327.033 354.296L238.067 372.484L236.045 372.282L157.862 364.4V265.377L253.568 249.21L322.989 257.293L323.009 257.731L323.016 257.947L327.033 354.296Z" fill="#3F3D56"/>
<path opacity="0.1" d="M327.033 354.296L238.067 372.484L236.045 372.282V270.766L323.009 257.731L327.033 354.296Z" fill="black"/>
<path opacity="0.05" d="M323.016 257.947L322.989 257.967L236.045 270.766L157.862 265.377L253.568 249.21L322.989 257.293L323.009 257.731L323.016 257.947Z" fill="black"/>
<path d="M377.582 358.445L331.151 367.944L330.093 367.836L289.29 363.72V312.039L339.239 303.599L375.473 307.822L375.486 308.051V308.159L377.582 358.445Z" fill="#3F3D56"/>
<path opacity="0.1" d="M377.582 358.445L331.151 367.944L330.093 367.836V314.855L375.486 308.051L377.582 358.445Z" fill="black"/>
<path opacity="0.05" d="M375.486 308.159L375.473 308.172L330.093 314.855L289.29 312.039L339.239 303.599L375.473 307.822L375.486 308.051V308.159Z" fill="black"/>
<path d="M252.894 258.075L206.463 267.566L205.405 267.465L164.602 263.349V211.668L214.551 203.228L250.785 207.451L250.798 207.68V207.788L252.894 258.075Z" fill="#3F3D56"/>
<path opacity="0.1" d="M252.894 258.075L206.463 267.566L205.405 267.465V214.484L250.798 207.68L252.894 258.075Z" fill="black"/>
<path opacity="0.05" d="M250.798 207.788L250.785 207.801L205.405 214.484L164.602 211.668L214.551 203.228L250.785 207.451L250.798 207.68V207.788Z" fill="black"/>
<path d="M334.447 256.054L288.016 265.545L286.958 265.444L246.154 261.328V209.647L296.104 201.207L332.337 205.43L332.351 205.659V205.767L334.447 256.054Z" fill="#303179"/>
<path opacity="0.1" d="M334.447 256.054L288.016 265.545L286.958 265.444V212.463L332.351 205.659L334.447 256.054Z" fill="black"/>
<path opacity="0.05" d="M332.351 205.767L332.337 205.781L286.958 212.463L246.154 209.647L296.104 201.207L332.337 205.43L332.351 205.659V205.767Z" fill="black"/>
<path d="M358.711 204.184L312.279 213.676L311.221 213.574L270.418 209.459V157.778L320.367 149.337L356.601 153.561L356.614 153.79V153.898L358.711 204.184Z" fill="#3F3D56"/>
<path opacity="0.1" d="M358.711 204.184L312.279 213.676L311.221 213.574V160.593L356.615 153.79L358.711 204.184Z" fill="black"/>
<path opacity="0.05" d="M356.614 153.898L356.601 153.911L311.221 160.593L270.418 157.778L320.367 149.337L356.601 153.561L356.614 153.79V153.898Z" fill="black"/>
<path d="M390.334 98.5319C389.842 102.91 386.499 106.44 385.259 110.657C383.399 117.023 386.607 123.86 391.028 128.845C394.592 132.806 398.906 136.021 403.721 138.303C408.536 140.586 413.756 141.891 419.08 142.143C420.644 142.277 422.219 142.106 423.717 141.637C425.051 141.095 426.253 140.272 427.242 139.226C430.558 135.891 432.344 131.277 433.052 126.622C433.759 121.967 433.49 117.232 433.213 112.537C433.213 111.565 433.035 110.602 432.688 109.694C432.236 108.831 431.615 108.068 430.861 107.451C428.471 105.255 425.836 103.341 423.009 101.745C421.796 101.071 420.495 100.398 419.72 99.2325C419.188 98.3044 418.842 97.2816 418.702 96.2213L417.833 91.8023C417.679 90.5282 417.244 89.3041 416.559 88.2186C415.029 86.1573 412.097 85.8744 409.529 85.7733L400.094 85.4028C397.162 85.2883 393.306 84.4463 390.442 85.0256C387.746 85.5578 388.656 88.0233 389.141 90.2597C389.843 92.9646 390.243 95.7389 390.334 98.5319Z" fill="#F5CAC2"/>
<path opacity="0.1" d="M390.334 98.5319C389.842 102.91 386.499 106.44 385.259 110.657C383.399 117.023 386.607 123.86 391.028 128.845C394.592 132.806 398.906 136.021 403.721 138.303C408.536 140.586 413.756 141.891 419.08 142.143C420.644 142.277 422.219 142.106 423.717 141.637C425.051 141.095 426.253 140.272 427.242 139.226C430.558 135.891 432.344 131.277 433.052 126.622C433.759 121.967 433.49 117.232 433.213 112.537C433.213 111.565 433.035 110.602 432.688 109.694C432.236 108.831 431.615 108.068 430.861 107.451C428.471 105.255 425.836 103.341 423.009 101.745C421.796 101.071 420.495 100.398 419.72 99.2325C419.188 98.3044 418.842 97.2816 418.702 96.2213L417.833 91.8023C417.679 90.5282 417.244 89.3041 416.559 88.2186C415.029 86.1573 412.097 85.8744 409.529 85.7733L400.094 85.4028C397.162 85.2883 393.306 84.4463 390.442 85.0256C387.746 85.5578 388.656 88.0233 389.141 90.2597C389.843 92.9646 390.243 95.7389 390.334 98.5319Z" fill="black"/>
<path d="M450.258 295.744L446.255 339.611C445.21 351.116 444.145 362.669 442.096 374.026C441.422 377.94 440.56 381.834 439.576 385.694C436.839 396.411 432.87 406.886 431.589 417.873C431.548 418.19 431.515 418.547 431.481 418.836C431.218 421.261 430.989 423.713 430.133 425.977C429.459 427.654 428.509 429.183 427.815 430.84C426.467 434.155 426.251 437.819 426.082 441.41C421.224 438.669 415.903 436.842 410.385 436.021C407.689 435.623 404.757 435.347 402.971 433.326C400.949 431.13 401.185 427.769 401.522 424.818C402.583 415.657 403.639 406.5 404.69 397.348C405.041 393.409 405.717 389.507 406.712 385.68C407.076 384.407 407.514 383.154 407.959 381.901C408.572 380.177 409.192 378.452 409.657 376.681C410.302 373.834 410.748 370.946 410.992 368.038C412.077 358.823 413.385 349.628 414.53 340.419L414.591 339.934C416.31 325.976 417.617 311.951 417.24 297.893C417.186 295.811 417.098 293.73 416.963 291.642C416.775 288.617 416.498 287.014 418.985 285.121C421.755 283.033 425.402 281.571 428.569 280.203C430.275 279.462 449.052 272.793 449.463 274.262C450.335 277.381 450.788 280.602 450.811 283.841C450.849 287.816 450.665 291.79 450.258 295.744Z" fill="#605D82"/>
<path opacity="0.1" d="M442.097 374.026C441.423 377.94 440.56 381.834 439.576 385.694C436.839 396.411 432.87 406.886 431.589 417.873C431.549 418.19 431.515 418.547 431.481 418.836C423.11 406.886 416.06 394.033 407.892 381.955C408.505 380.231 409.125 378.506 409.59 376.735C410.26 373.872 410.729 370.966 410.992 368.038C412.077 358.823 413.385 349.628 414.53 340.419L414.591 339.934C415.064 341.888 415.742 343.787 416.613 345.599C422.099 356.741 435.134 362.373 441.51 373.036C441.721 373.369 441.917 373.699 442.097 374.026Z" fill="black"/>
<path d="M374.172 276.067C374.448 285 375.877 293.858 377.306 302.682L380.251 320.87C381.862 330.84 383.547 341.005 388.265 349.931C391.797 356.613 396.879 362.312 401.482 368.301C412.791 383.026 421.29 399.712 432.014 414.869C435.134 419.274 439.589 424.044 444.907 423.121C448.398 422.521 450.933 419.611 453.669 417.375C456.904 414.734 460.8 412.801 463.347 409.486C465.895 406.172 466.394 400.675 462.943 398.318C461.764 397.516 460.328 397.213 458.993 396.701C453.649 394.68 450.184 389.453 447.987 384.171C445.79 378.89 444.449 373.225 441.517 368.314C435.141 357.651 422.099 352.019 416.613 340.87C413.54 334.633 413.243 327.398 413.014 320.48L412.414 302.756C412.347 300.816 412.299 298.802 413.088 297.031C415.184 292.315 421.52 291.871 426.655 291.271C432.48 290.591 438.122 288.813 443.283 286.03C446.242 284.434 449.126 282.399 450.697 279.435C452.139 276.741 452.334 273.568 452.503 270.51L454.282 238.384C454.437 235.622 454.572 232.759 453.608 230.173C451.162 223.665 442.939 221.537 435.99 221.847C423.063 222.426 411.133 227.983 398.921 231.742C395.895 232.672 392.855 233.507 389.734 234.134C387.038 234.679 383.668 234.457 381.08 235.333C376.443 236.896 376.558 247.04 375.904 251.244C374.555 259.446 373.975 267.757 374.172 276.067Z" fill="#605D82"/>
<path d="M443.155 424.481C444.294 425.633 444.664 427.317 444.961 428.907C446.608 437.73 447.466 446.682 447.522 455.657C447.448 456.494 447.614 457.336 448.001 458.082C448.324 458.525 448.759 458.873 449.261 459.093C452.557 460.662 456.378 458.473 459.128 456.068C464.217 451.615 468.524 445.633 468.813 438.877C468.888 437.139 468.692 435.381 468.995 433.663C469.44 431.117 470.93 428.9 472.237 426.678C474.475 422.888 476.283 418.862 477.629 414.673C478.128 413.097 478.465 411.117 477.225 410.019C476.791 409.674 476.294 409.415 475.762 409.257L460.867 403.734C459.573 403.255 456.365 411.494 455.859 412.397C454.613 414.599 453.372 415.846 450.872 416.357C448.371 416.869 445.285 416.128 442.899 417.402C438.855 419.55 440.87 422.184 443.155 424.481Z" fill="#535070"/>
<path d="M420.185 429.567C419.909 429.017 419.524 428.529 419.053 428.132C418.365 427.694 417.581 427.429 416.768 427.358C413.937 426.873 410.581 426.556 408.619 428.665C406.786 430.638 407.103 433.852 405.573 436.075C405.088 436.748 404.427 437.354 404.009 438.095C403.49 439.23 403.258 440.475 403.335 441.72C403.255 445.148 403.174 448.591 403.416 452.013C403.612 454.882 404.09 457.893 405.89 460.143C408.774 463.754 413.978 464.273 418.588 464.502L422.328 464.697C423.357 464.817 424.399 464.721 425.388 464.414C426.001 464.132 426.551 463.73 427.005 463.231C427.459 462.733 427.808 462.147 428.03 461.511C429.978 456.674 426.898 451.467 424.997 446.617C422.807 441.032 423.198 434.842 420.185 429.567Z" fill="#535070"/>
<path d="M389.256 73.8434C389.208 73.353 389.28 72.8584 389.465 72.4018C390.011 71.4385 391.439 71.7282 392.518 71.9707C396.852 73.062 401.421 72.0717 405.89 72.3277C410.358 72.5837 415.386 74.8134 416.283 79.192C419.525 76.8989 422.318 74.0312 424.526 70.7312C425.766 68.8787 426.844 66.7568 426.676 64.5338C426.433 61.3273 423.744 58.9292 421.284 56.8948L413.87 50.8322C412.893 49.9368 411.766 49.2207 410.54 48.717C408.828 48.1309 406.955 48.4138 405.148 48.4138C399.756 48.4138 393.974 45.9551 389.168 48.4138C387.146 49.4445 385.643 51.2161 384.187 52.9406L377.562 60.7817C377.061 61.2815 376.694 61.9003 376.497 62.5803C376.308 63.5368 376.8 64.4799 376.976 65.4432C377.286 67.1946 376.531 69.0673 377.11 70.7514C378.074 73.5402 381.471 73.9377 383.547 75.5409C384.315 76.1337 385.529 78.1613 386.452 78.1344C388.076 78.1007 389.209 75.1367 389.256 73.8434Z" fill="#3F3D56"/>
<path d="M400.498 96.9691C412.223 96.9691 421.729 87.4689 421.729 75.7498C421.729 64.0306 412.223 54.5304 400.498 54.5304C388.772 54.5304 379.267 64.0306 379.267 75.7498C379.267 87.4689 388.772 96.9691 400.498 96.9691Z" fill="#F5CAC2"/>
<path d="M405.472 122.183C404.753 120.126 403.398 118.351 401.604 117.114C399.81 115.877 397.669 115.241 395.49 115.299C394.865 115.418 394.218 115.335 393.643 115.063C393.318 114.814 393.056 114.491 392.882 114.12C391.595 111.797 390.558 109.345 389.788 106.804C389.451 105.679 388.986 104.352 387.847 104.062C386.93 103.827 385.994 104.419 385.38 105.14C384.837 105.914 384.247 106.654 383.614 107.356C380.919 109.741 376.201 107.565 373.377 109.755C372.912 110.112 372.527 110.57 372.029 110.9C371.543 111.195 371.019 111.422 370.472 111.573C364.99 113.356 359.616 115.454 354.377 117.858C356.264 129.202 358.192 140.762 362.613 151.371C364.716 156.424 367.095 161.375 368.78 166.582C372.514 178.121 372.676 190.469 372.723 202.601C372.723 210.9 372.723 219.374 370.027 227.229C369.42 229.007 368.679 230.772 368.51 232.618C368.342 234.464 368.895 236.552 370.411 237.657C371.289 238.236 372.296 238.589 373.343 238.687C378 239.361 382.691 238.135 387.274 237.071C399.561 234.228 412.097 232.598 424.6 231.008L445.561 228.314C447.065 228.208 448.536 227.827 449.901 227.189C453.736 225.094 454.1 219.327 451.714 215.663C450.575 213.905 448.964 212.463 448.001 210.604C447.037 208.745 446.963 206.131 448.614 204.844C451.984 202.217 450.973 197.347 451.135 193.089C451.584 181.18 451.523 169.279 450.953 157.387C450.781 154.921 450.741 152.447 450.831 149.977C451.067 145.787 452.105 141.685 453.143 137.609L459.512 112.55C457.848 109.923 454.66 108.252 451.647 107.498C448.634 106.743 445.487 106.521 442.514 105.598C436.449 103.712 431.003 98.9293 424.647 99.3739C424.165 99.3825 423.691 99.4975 423.259 99.7107C421.83 100.526 422.052 102.587 421.964 104.231C421.762 107.875 419.08 110.913 416.128 113.049C413.176 115.184 409.792 116.733 407.076 119.165C406.604 119.521 406.216 119.975 405.939 120.496C405.662 121.018 405.503 121.593 405.472 122.183Z" fill="#141850"/>
<path d="M321.351 145.955C319.945 146.869 318.45 147.639 316.89 148.253C315.407 148.839 313.823 149.303 312.61 150.327C312.009 150.848 311.505 151.471 311.12 152.166C310.402 153.44 310.039 154.883 310.069 156.345C310.099 157.807 310.52 159.234 311.29 160.477C312.06 161.721 313.149 162.735 314.445 163.414C315.74 164.093 317.194 164.413 318.655 164.339C320.603 164.238 322.443 163.45 324.229 162.675L339.205 156.161C341.74 155.063 344.476 153.783 345.676 151.291C345.813 151.057 345.866 150.784 345.824 150.516C345.708 150.222 345.487 149.982 345.204 149.842C341.829 147.648 338.877 144.864 336.489 141.624C335.876 140.789 335.141 138.822 334.252 138.317C331.084 136.558 323.892 144.312 321.351 145.955Z" fill="#F5CAC2"/>
<path d="M481.437 140.667L486.957 146.973C488.143 148.32 489.33 149.667 490.408 151.122C493.062 154.775 495.19 158.782 496.73 163.025C497.93 166.171 498.927 169.526 498.509 172.867C498.229 174.58 497.766 176.258 497.128 177.872C496.116 180.975 494.861 183.994 493.374 186.899C492.131 189.103 490.728 191.213 489.175 193.211C484.899 198.873 480.221 204.22 475.176 209.209C473.289 211.075 472.48 214.1 471.678 216.619C470.161 221.274 466.556 224.905 463.071 228.34C461.95 229.525 460.71 230.59 459.371 231.52C457.365 232.814 455.018 233.48 452.631 233.433C451.589 233.439 450.558 233.226 449.605 232.807C447.219 231.675 446.006 228.92 445.756 226.293C445.536 223.905 445.935 221.502 446.915 219.314C450.083 212.301 458.218 209.263 463.967 204.144C467.337 201.146 469.919 197.374 472.466 193.649C474.192 191.32 475.633 188.794 476.76 186.124C478.04 182.695 477.542 178.64 478.667 175.164C479.139 173.689 480.015 172.362 480.494 170.9C480.972 169.438 481.134 167.707 480.237 166.447C479.566 165.642 478.707 165.013 477.737 164.615C474.064 162.756 469.952 160.358 469.251 156.296C468.971 154.046 469.559 151.774 470.896 149.943C472.226 148.136 473.782 146.506 475.526 145.093C477.124 143.652 479.826 142.055 481.437 140.667Z" fill="#F5CAC2"/>
<path d="M317.806 154.753C316.836 152.786 315.616 150.779 313.648 149.802C312.69 149.389 311.658 149.176 310.615 149.176C309.572 149.176 308.54 149.389 307.582 149.802C305.675 150.626 303.888 151.705 302.271 153.008L297.512 156.518C296.434 157.226 295.48 158.106 294.688 159.125C293.934 160.361 293.434 161.735 293.219 163.167C292.545 166.447 291.999 169.822 292.471 173.143C293.226 178.532 296.461 183.194 300.02 187.289C302.244 189.836 304.994 192.409 308.377 192.524C309.84 192.571 311.464 191.991 312.071 190.664C312.282 190.137 312.394 189.575 312.401 189.007C312.765 183.025 310.621 177.185 308.128 171.735C307.454 170.253 306.726 168.717 306.78 167.094C306.759 166.818 306.83 166.544 306.982 166.313C307.196 166.088 307.483 165.948 307.791 165.915C311.208 165.242 317.098 167.896 319.491 164.103C321.041 161.597 318.912 156.983 317.806 154.753Z" fill="#F5CAC2"/>
<path d="M388.137 67.1677C388.095 66.6769 388.169 66.1831 388.353 65.7261C388.898 64.7561 390.327 65.0525 391.406 65.295C395.74 66.3863 400.309 65.396 404.778 65.652C409.246 65.908 414.267 68.1377 415.171 72.5163C418.409 70.2195 421.203 67.3525 423.413 64.0555C424.654 62.1963 425.732 60.0743 425.564 57.8514C425.321 54.6449 422.625 52.2468 420.172 50.2191L412.758 44.1565C411.784 43.2612 410.659 42.5451 409.435 42.0413C407.716 41.4552 405.849 41.7381 404.043 41.7381C398.651 41.7381 392.868 39.2794 388.063 41.7381C386.041 42.7688 384.538 44.5404 383.082 46.2649L376.45 54.106C375.951 54.6069 375.587 55.2256 375.392 55.9046C375.203 56.8611 375.695 57.8042 375.87 58.7675C376.18 60.5189 375.425 62.3916 376.005 64.069C376.969 66.8645 380.366 67.262 382.442 68.8652C383.21 69.458 384.423 71.4856 385.347 71.4587C386.944 71.425 388.076 68.461 388.137 67.1677Z" fill="#3F3D56"/>
<path d="M343.047 125.315C342.191 125.871 341.439 126.571 340.823 127.383C340.048 128.562 339.886 130.078 339.219 131.291C337.79 133.945 334.44 134.894 332.358 137.07C332.02 137.368 331.784 137.764 331.684 138.202C331.671 138.794 331.869 139.372 332.243 139.832L342.312 155.649C345.682 155.945 348.877 153.844 352.234 154.127C353.48 154.228 354.768 154.659 355.967 154.288C356.825 153.906 357.629 153.415 358.36 152.826C360.382 151.56 363.024 151.412 364.702 149.748C366.381 148.084 366.522 145.639 366.502 143.369C366.532 141.398 366.331 139.431 365.902 137.508C364.419 131.445 359.776 126.77 356.864 121.395C355.442 118.774 354.673 117.245 351.674 119.044C348.675 120.843 345.885 123.241 343.047 125.315Z" fill="#141850"/>
<path d="M465.315 117.319C467.208 118.548 468.915 120.04 470.384 121.752C471.914 123.726 472.783 126.151 474.259 128.172C475.735 130.193 477.629 131.648 479.247 133.453C481.707 136.188 483.372 139.516 485.003 142.823C481.01 148.015 476.659 152.922 471.981 157.508C471.459 158.122 470.771 158.571 470 158.802C469.477 158.858 468.948 158.783 468.461 158.584C467.974 158.386 467.544 158.069 467.209 157.663C466.481 156.909 465.969 155.966 465.275 155.178C463.639 153.492 461.459 152.439 459.121 152.207C456.803 151.981 454.47 151.947 452.146 152.106C451.635 152.166 451.119 152.08 450.656 151.857C450.312 151.62 450.034 151.3 449.847 150.927C447.151 146.292 447.994 140.472 448.958 135.177L451.162 123.052C451.483 120.737 452.102 118.473 453.002 116.316C453.837 114.531 455.698 111.499 458.003 112.038C460.308 112.577 463.368 115.918 465.315 117.319Z" fill="#141850"/>
<path d="M273.114 206.205L226.683 215.696L225.625 215.595L184.821 211.48V159.799L234.771 151.358L271.004 155.582L271.018 155.811V155.919L273.114 206.205Z" fill="#303179"/>
<path opacity="0.1" d="M273.114 206.205L226.683 215.696L225.625 215.595V162.614L271.018 155.811L273.114 206.205Z" fill="black"/>
<path opacity="0.05" d="M271.018 155.919L271.004 155.932L225.625 162.614L184.821 159.799L234.771 151.358L271.004 155.582L271.018 155.811V155.919Z" fill="black"/>
<path d="M297.378 155.009L250.946 164.507L249.888 164.399L209.085 160.284V108.603L259.034 100.162L295.268 104.386L295.281 104.615V104.723L297.378 155.009Z" fill="#3F3D56"/>
<path opacity="0.1" d="M297.378 155.009L250.946 164.507L249.888 164.4V111.418L295.281 104.615L297.378 155.009Z" fill="black"/>
<path opacity="0.05" d="M295.281 104.723L295.268 104.736L249.888 111.418L209.085 108.603L259.034 100.162L295.268 104.386L295.281 104.615V104.723Z" fill="black"/>
</g>
<defs>
<clipPath id="clip0_504_6702">
<rect width="640" height="474" fill="white"/>
</clipPath>
</defs>
</svg>
