<svg width="572" height="426" viewBox="0 0 572 426" fill="none" xmlns="http://www.w3.org/2000/svg">
<path d="M548.083 369.787C548.714 350.984 540.105 332.301 523.358 325.894C527.349 345.11 523.961 366.728 513.986 385.706C510.101 393.098 505.058 401.021 506.443 408.56C507.304 413.252 510.64 416.887 514.644 419.192C518.648 421.497 523.314 422.643 527.922 423.766L528.738 424.567C539.02 407.407 547.453 388.59 548.083 369.787Z" fill="#ED7966"/>
<path d="M523.127 326.246C531.523 337.97 535.806 353.003 534.876 368.464C534.741 371.887 534.089 375.27 532.943 378.498C531.679 381.737 529.672 384.632 527.082 386.952C524.687 389.182 522.016 391.221 520.13 393.923C519.198 395.242 518.542 396.735 518.201 398.313C517.86 399.891 517.841 401.521 518.145 403.107C518.849 406.864 520.911 409.952 523.044 412.886C525.413 416.144 527.93 419.483 528.484 423.758C528.551 424.276 529.375 424.027 529.308 423.51C528.344 416.072 521.894 411.747 519.549 405.022C518.454 401.885 518.356 398.262 520.353 395.003C522.099 392.154 524.853 390.049 527.294 387.809C529.853 385.572 531.904 382.812 533.306 379.715C534.607 376.536 535.386 373.167 535.612 369.739C536.217 362.343 535.616 354.899 533.831 347.696C531.915 339.768 528.5 332.278 523.771 325.63C523.481 325.225 522.839 325.843 523.127 326.246L523.127 326.246Z" fill="#F5CAC2"/>
<path d="M535.444 363.417C538.143 362.794 540.579 361.346 542.416 359.274C544.252 357.202 545.397 354.61 545.69 351.857C545.732 351.322 544.902 351.349 544.86 351.885C544.591 354.448 543.525 356.862 541.812 358.788C540.099 360.714 537.825 362.054 535.31 362.622C535.257 362.63 535.206 362.648 535.16 362.676C535.115 362.704 535.075 362.741 535.044 362.784C535.013 362.828 534.99 362.877 534.978 362.929C534.966 362.981 534.964 363.035 534.973 363.088C534.982 363.14 535.001 363.191 535.03 363.236C535.059 363.281 535.096 363.32 535.14 363.351C535.184 363.382 535.233 363.403 535.285 363.415C535.338 363.426 535.392 363.427 535.444 363.417V363.417Z" fill="#F5CAC2"/>
<path d="M528.424 385.961C526.346 384.52 524.597 382.655 523.292 380.49C521.988 378.325 521.156 375.908 520.854 373.398C520.785 372.881 519.961 373.13 520.03 373.646C520.35 376.257 521.221 378.77 522.583 381.02C523.946 383.27 525.771 385.205 527.936 386.699C528.351 386.981 528.836 386.241 528.424 385.961Z" fill="#F5CAC2"/>
<path d="M530.967 340.415C530.034 340.854 529.003 341.047 527.974 340.976C526.945 340.905 525.951 340.573 525.086 340.01C524.676 339.723 524.192 340.463 524.599 340.748C525.556 341.365 526.654 341.731 527.791 341.812C528.928 341.893 530.066 341.686 531.102 341.211C531.21 341.176 531.302 341.105 531.365 341.01C531.428 340.915 531.456 340.802 531.446 340.689C531.437 340.637 531.416 340.588 531.386 340.545C531.356 340.503 531.316 340.467 531.27 340.441C531.225 340.415 531.174 340.399 531.122 340.394C531.069 340.39 531.017 340.397 530.967 340.415Z" fill="#F5CAC2"/>
<path d="M464.147 358.492C464.396 358.68 464.646 358.868 464.895 359.062C468.23 361.599 471.321 364.442 474.127 367.555C474.348 367.791 474.568 368.035 474.781 368.278C481.502 375.955 486.536 384.956 489.556 394.699C490.795 398.672 491.707 402.74 492.284 406.861C493.093 412.608 493.499 418.969 496.141 423.703C496.41 424.199 496.713 424.676 497.048 425.129L527.546 425.647C527.62 425.613 527.695 425.586 527.77 425.552L528.979 425.629C528.964 425.41 528.944 425.184 528.929 424.965C528.921 424.838 528.906 424.711 528.898 424.584C528.89 424.499 528.883 424.414 528.881 424.337C528.878 424.309 528.876 424.28 528.872 424.259C528.87 424.182 528.86 424.111 528.857 424.04C528.749 422.776 528.633 421.512 528.503 420.247C528.504 420.24 528.504 420.24 528.498 420.233C527.502 410.604 525.671 401.088 522.399 392.358C522.301 392.096 522.204 391.826 522.091 391.563C520.607 387.667 518.768 383.916 516.598 380.356C515.413 378.429 514.117 376.573 512.717 374.796C509.094 370.22 504.673 366.337 499.667 363.334C489.643 357.31 477.33 354.859 465.081 358.226C464.768 358.313 464.461 358.399 464.147 358.492Z" fill="#ED7966"/>
<path d="M464.154 358.885C478.71 362.152 491.648 370.277 500.242 381.873C502.191 384.368 503.682 387.189 504.644 390.205C505.499 393.346 505.489 396.66 504.613 399.795C503.856 402.84 502.738 405.917 502.717 408.99C502.699 410.494 503.037 411.981 503.705 413.329C504.372 414.677 505.349 415.848 506.556 416.747C509.465 419.001 513.168 419.951 516.839 420.75C520.915 421.636 525.172 422.49 528.265 425.203C528.64 425.532 529.216 424.855 528.842 424.526C523.461 419.805 515.129 420.635 508.962 417.262C506.084 415.688 503.791 413.163 503.572 409.625C503.379 406.531 504.53 403.359 505.323 400.278C506.218 397.215 506.35 393.979 505.706 390.853C504.913 387.783 503.543 384.892 501.668 382.335C497.594 376.589 492.514 371.628 486.672 367.69C479.909 363.093 472.333 359.823 464.347 358.055C463.845 357.942 463.654 358.773 464.154 358.885Z" fill="#F5CAC2"/>
<path d="M497.67 377.927C501.766 373.786 502.617 367.592 499.682 363.459C499.393 363.051 498.676 363.575 498.966 363.982C501.715 367.854 500.895 373.57 497.067 377.441C496.664 377.848 497.27 378.332 497.67 377.927V377.927Z" fill="#F5CAC2"/>
<path d="M505.196 398.274C502.634 398.554 500.043 398.312 497.578 397.562C495.114 396.811 492.827 395.567 490.858 393.907C490.482 393.58 489.906 394.257 490.281 394.584C492.335 396.308 494.717 397.597 497.284 398.372C499.851 399.148 502.549 399.394 505.215 399.096C505.752 399.046 505.73 398.223 505.196 398.274L505.196 398.274Z" fill="#F5CAC2"/>
<path d="M479.708 364.234C479.098 365.147 478.295 365.915 477.354 366.482C476.413 367.049 475.359 367.402 474.266 367.516C473.729 367.559 473.752 368.382 474.285 368.338C475.492 368.208 476.656 367.817 477.697 367.192C478.738 366.567 479.63 365.724 480.312 364.72C480.385 364.64 480.425 364.535 480.423 364.427C480.42 364.318 480.376 364.215 480.298 364.139C480.206 364.076 480.094 364.051 479.984 364.069C479.875 364.087 479.776 364.146 479.708 364.234V364.234Z" fill="#F5CAC2"/>
<path d="M455.076 348.434C455.14 348.362 454.654 348.301 453.753 348.249V318.021H410.093V320.454H390.439C388.134 320.456 385.925 321.373 384.295 323.001C382.666 324.63 381.749 326.838 381.747 329.141V341.644C381.748 343.948 382.664 346.156 384.294 347.785C385.924 349.414 388.134 350.33 390.439 350.332L410.582 350.358L419.427 350.371H420.036L428.887 350.385L453.608 350.418H455.738C456.049 350.067 454.779 348.785 455.076 348.434Z" fill="#141850"/>
<path d="M455.546 348.996C454.102 351.1 452.933 351.023 451.909 349.661C451.37 348.878 450.936 348.028 450.618 347.133C447.507 339.159 445.472 320.867 439.604 327.263C438.446 328.526 437.269 329.78 436.089 331.018C433.894 333.326 431.601 335.83 429.33 338.042C429.329 338.049 429.381 337.803 429.374 337.808C428.254 338.904 429.097 329.429 428.654 326.763C428.56 326.188 428.406 325.93 428.161 326.16C428.142 325.901 428.13 325.643 428.132 325.381C428.129 324.969 428.15 324.558 428.194 324.148C428.231 323.772 428.282 323.391 428.354 323.008L447.537 220.486C448.042 217.801 449.391 215.346 451.387 213.479C453.384 211.612 455.924 210.43 458.638 210.104C459.924 209.961 461.224 210.007 462.496 210.24L465.988 210.893C467.367 211.15 468.693 211.634 469.913 212.326L469.919 212.327C472.251 213.642 474.114 215.652 475.247 218.077C476.38 220.502 476.727 223.22 476.239 225.851L455.546 348.996Z" fill="#141850"/>
<path d="M291.737 407.394L282.731 403.089L295.103 365.466L308.395 371.82L291.737 407.394Z" fill="#F5CAC2"/>
<path d="M352.115 401.329C351.461 401.739 350.806 402.142 350.144 402.545C348.828 403.352 347.498 404.145 346.168 404.925C345.5 405.316 344.825 405.706 344.157 406.089V406.109L344.118 406.116L344.104 406.122L343.086 406.374L341.624 402.512L340.949 400.734L339.996 398.215L338.25 393.606L329.055 369.342L343.35 365.818L343.886 368.006H343.893L344.157 369.09L349.152 389.335L350.171 393.474L350.204 393.6L350.819 396.072L351.348 398.215L351.937 400.608L352.115 401.329Z" fill="#F5CAC2"/>
<path d="M437.394 316.116C436.488 317.571 435.562 319.019 434.629 320.454C432.896 323.125 431.116 325.756 429.29 328.348C429.29 328.355 429.284 328.355 429.277 328.361C428.212 329.347 427.035 330.206 425.771 330.92C425.718 330.96 425.659 330.986 425.606 331.019C424.675 331.533 423.684 331.931 422.655 332.203C422.285 332.295 421.908 332.388 421.537 332.48C420.201 332.798 418.878 333.069 417.562 333.307C415.22 333.723 412.904 334.021 410.602 334.206C410.417 334.226 410.232 334.239 410.047 334.252C400.58 334.946 391.365 333.829 381.747 331.998C376.997 331.098 372.148 330.021 367.127 328.903C365.486 328.533 363.839 328.169 362.172 327.806C362.046 327.779 361.914 327.746 361.782 327.72C359.4 327.197 356.979 326.682 354.498 326.173C351.376 325.531 348.154 324.91 344.807 324.321L345.045 329.035C345.243 332.662 345.998 336.236 347.281 339.634C348.71 343.813 349.841 347.118 347.453 354.001L346.302 357.333C346.899 358.988 347.104 360.759 346.9 362.506C346.697 364.253 346.092 365.929 345.131 367.403L344.9 367.753L354.498 392.025L355.12 393.598H350.205L344.159 393.605H333.912L319.127 363.958L318.419 362.543V362.471L319.947 305.498C319.967 304.996 320.007 304.486 320.073 303.984C320.342 301.7 321.064 299.492 322.197 297.489C323.329 295.487 324.849 293.73 326.668 292.321C328.411 290.959 330.408 289.958 332.542 289.374C334.676 288.791 336.904 288.637 339.098 288.923L344.159 289.577L354.498 290.913L361.782 291.858L361.927 291.878L383.407 294.655L384.948 288.374L385.233 288.268L394.276 284.956L425.553 273.498L425.632 273.471L427.69 272.717L427.934 273.114C428.007 273.233 428.08 273.352 428.146 273.471C430.179 277.115 431.835 280.956 433.088 284.936C435.193 291.437 436.927 298.053 438.281 304.751C438.34 305.042 438.393 305.306 438.439 305.544L438.459 305.617C438.479 305.729 438.492 305.802 438.499 305.822C439.22 308.824 438.717 312.487 437.394 316.116Z" fill="#2F2E41"/>
<path d="M438.714 295.12C438.615 294.697 438.489 294.267 438.357 293.851C437.307 290.696 436.083 287.602 434.692 284.581C433.131 281.143 431.259 277.461 429.029 273.474C427.951 271.543 426.791 269.535 425.55 267.451C424.928 266.406 424.282 265.341 423.612 264.257C423.585 264.207 423.557 264.159 423.526 264.112L423.334 263.794L392.388 267.933L380.864 269.474L380.176 275.213L380.011 276.634C380.004 276.634 380.004 276.634 380.011 276.641L379.547 280.515V280.522L378.932 285.639L378.879 285.633L361.779 283.418L344.156 281.137L334.69 279.914C332.496 279.628 330.267 279.781 328.133 280.365C325.999 280.948 324.002 281.95 322.259 283.312C320.441 284.721 318.921 286.478 317.789 288.481C316.656 290.483 315.934 292.691 315.664 294.975C315.605 295.438 315.565 295.914 315.545 296.383L306.614 317.534C301.27 330.183 297.867 343.566 296.52 357.23L289.97 378.156L290.903 378.242L304.782 379.531L308.447 379.875L316.517 368.1C317.437 366.758 318.31 365.376 319.124 363.961C320.463 361.65 321.654 359.256 322.689 356.794L340.147 315.273C341.497 315.504 342.833 315.724 344.156 315.934C350.275 316.926 356.149 317.734 361.779 318.36C380.083 320.403 395.933 320.562 410.044 318.83C414.006 318.347 417.836 317.712 421.534 316.926C422.891 316.641 424.229 316.335 425.55 316.007C425.861 315.934 426.165 315.861 426.469 315.782C429.203 315.077 431.717 313.698 433.78 311.772C435.843 309.845 437.389 307.432 438.278 304.754C439.338 301.65 439.49 298.307 438.714 295.12Z" fill="#2F2E41"/>
<path d="M294.614 401.251L284.87 396.583L283.342 395.849L280.901 401.839L263.86 405.588C263.017 405.772 262.256 406.222 261.687 406.869C261.118 407.517 260.771 408.33 260.697 409.189C260.623 410.048 260.826 410.908 261.276 411.644C261.726 412.379 262.4 412.952 263.199 413.277L279.849 420.067L285.135 415.314L283.838 421.694L290.109 424.253L296.983 402.388L294.614 401.251Z" fill="#2F2E41"/>
<path d="M354.498 392.025L355.12 393.598H354.498V392.025Z" fill="#2F2E41"/>
<path d="M238.07 277.597C238.07 274.053 236.879 271.177 235.417 271.17H125.28C123.812 271.177 122.628 274.053 122.621 277.597V423.478C122.621 423.807 122.499 424.125 122.277 424.368C122.056 424.612 121.752 424.765 121.424 424.797C120.355 424.899 119.285 424.995 118.215 425.083C118.189 425.083 118.162 425.09 118.136 425.09C117.554 425.143 116.972 425.182 116.389 425.229H116.383C116.083 424.675 115.787 424.117 115.495 423.554C115.396 423.364 115.344 423.154 115.344 422.94V269.26C115.344 268.281 115.384 267.296 115.45 266.324C115.545 264.989 115.71 263.661 115.946 262.344C117.064 256.202 119.591 252.043 122.462 252.03H238.229C238.648 252.032 239.062 252.12 239.446 252.287C240.01 252.537 240.52 252.894 240.948 253.339C241.528 253.942 242.024 254.62 242.423 255.355C243.839 257.848 244.851 261.564 245.208 265.888C245.208 265.927 245.215 265.967 245.215 266.007C245.307 267.078 245.354 268.169 245.347 269.26L245.44 283.428L245.499 291.878L245.678 318.391L245.744 327.806L246.035 424.468C246.035 424.819 245.896 425.155 245.647 425.403C245.399 425.651 245.063 425.79 244.712 425.79H239.393C239.042 425.79 238.706 425.651 238.458 425.403C238.21 425.155 238.07 424.819 238.07 424.468L238.07 277.597Z" fill="#141850"/>
<path d="M159.562 212.723L151.9 246.413L147.005 251.772H143.473L158.029 190.518L158.749 200.924V200.931L159.562 212.723Z" fill="#141850"/>
<path d="M196.431 247.153L151.487 246.868L147.498 246.842L144.654 246.822L141.339 246.802H141.313C140.832 246.803 140.371 246.993 140.029 247.331L134.433 252.925C134.309 253.047 134.208 253.19 134.135 253.348C134.1 253.392 134.071 253.441 134.049 253.493C133.928 253.775 133.878 254.081 133.904 254.386C133.929 254.692 134.029 254.986 134.195 255.243C134.361 255.501 134.588 255.713 134.855 255.862C135.123 256.011 135.423 256.092 135.73 256.098H193.95C194.3 256.097 194.642 255.997 194.937 255.81C195.232 255.623 195.468 255.356 195.617 255.04L196.074 254.049L197.013 252.032L198.078 249.758C198.192 249.516 198.251 249.252 198.25 248.984C198.248 248.502 198.056 248.039 197.715 247.697C197.375 247.354 196.914 247.159 196.431 247.153Z" fill="#141850"/>
<path opacity="0.17" d="M196.074 254.047L195.614 255.043C195.464 255.357 195.229 255.623 194.935 255.81C194.641 255.997 194.3 256.097 193.951 256.099H135.728C135.422 256.094 135.122 256.013 134.855 255.864C134.587 255.715 134.36 255.502 134.195 255.245C134.029 254.988 133.929 254.693 133.904 254.388C133.879 254.083 133.929 253.777 134.051 253.496C134.071 253.443 134.1 253.394 134.135 253.35L196.074 254.047Z" fill="black"/>
<path opacity="0.17" d="M158.749 200.924V200.931L146.285 251.772H143.473L158.029 190.518L158.749 200.924Z" fill="black"/>
<path d="M174.045 210.24L156.402 76.0828C156.338 75.58 156.076 75.1234 155.674 74.8134L143.529 59.6198L142.437 58.7801C142.033 58.4742 141.525 58.3389 141.022 58.4033L139.196 58.6479C138.692 58.7128 138.235 58.9749 137.925 59.3767C137.615 59.7784 137.477 60.2868 137.542 60.7901L155.827 199.793V199.8L156.945 208.303L158.274 218.399V218.412L160.338 234.121C160.371 234.39 160.462 234.649 160.605 234.88C160.748 235.11 160.939 235.307 161.165 235.457C161.388 235.61 161.64 235.714 161.906 235.762C162.172 235.81 162.445 235.8 162.706 235.734L163.864 235.444C164.308 235.329 164.696 235.062 164.962 234.69L165.478 233.956L165.716 233.612L173.708 211.595C173.988 211.203 174.109 210.718 174.045 210.24Z" fill="#141850"/>
<path opacity="0.17" d="M143.526 59.6204L165.719 233.615L165.477 233.956L164.963 234.687C164.698 235.061 164.309 235.328 163.865 235.442L162.705 235.733C162.443 235.798 162.17 235.807 161.904 235.759C161.638 235.711 161.385 235.608 161.161 235.456C160.938 235.304 160.749 235.106 160.607 234.876C160.465 234.646 160.373 234.389 160.338 234.121L137.545 60.7922C137.479 60.2888 137.616 59.7799 137.925 59.3773C138.234 58.9746 138.691 58.7112 139.194 58.6448L141.025 58.4044C141.273 58.3708 141.526 58.3871 141.768 58.4521C142.01 58.5171 142.236 58.6296 142.434 58.783L143.526 59.6204Z" fill="black"/>
<path d="M144.18 64.5965L155.957 81.3974L169.955 187.846L162.366 202.893L144.18 64.5965Z" fill="#303179"/>
<path d="M397.284 424.683L389.208 424.835L411.656 346.897L419.732 349.39L397.284 424.683Z" fill="#141850"/>
<path d="M450.254 424.832L442.183 424.68L420.036 350.371L419.731 349.393L424.911 347.793C425.936 347.813 427.001 347.826 428.099 347.839L428.887 350.385L450.254 424.832Z" fill="#141850"/>
<path d="M351.105 393.935L340.895 397.47L339.292 398.023L341.775 403.997L332.305 418.644C331.836 419.368 331.611 420.222 331.663 421.083C331.715 421.944 332.041 422.765 332.593 423.427C333.145 424.09 333.895 424.558 334.732 424.764C335.57 424.97 336.451 424.904 337.248 424.573L353.86 417.689L354.269 410.594L357.84 416.039L364.097 413.447L353.588 393.077L351.105 393.935Z" fill="#2F2E41"/>
<path d="M289.134 175.173C289.618 176.116 290.303 176.941 291.141 177.59C291.979 178.24 292.949 178.698 293.983 178.932C295.017 179.166 296.089 179.171 297.125 178.946C298.161 178.721 299.135 178.272 299.979 177.63L321.449 191.875L321.49 178.491L301.095 167.016C299.922 165.671 298.297 164.803 296.526 164.576C294.756 164.349 292.964 164.779 291.489 165.785C290.015 166.79 288.961 168.301 288.527 170.032C288.093 171.762 288.309 173.591 289.134 175.173V175.173Z" fill="#F5CAC2"/>
<path d="M305.174 181.359L315.191 169.97L355.978 194.17L410.045 189.221C412.717 188.977 415.411 189.323 417.935 190.236C420.458 191.149 422.75 192.606 424.646 194.504C426.543 196.401 427.999 198.693 428.91 201.216C429.82 203.739 430.165 206.431 429.917 209.102C429.465 213.926 427.117 218.373 423.388 221.468C419.659 224.564 414.854 226.054 410.027 225.613L349.134 219.98L305.174 181.359Z" fill="#ED7966"/>
<path d="M430.663 181.535L430.569 181.417L405.014 178.897L387.748 209.295C372.906 227.43 383.691 239.936 384.337 241.796L379.185 265.537L380.34 273.482L380.917 275.842L439.724 306.553L427.637 266.309L439.438 229.608C442.055 221.493 442.623 212.857 441.092 204.47C439.561 196.082 435.978 188.204 430.663 181.535Z" fill="#ED7966"/>
<path d="M458.662 154.785C458.675 155.109 458.682 155.433 458.682 155.751C458.676 159.252 457.842 162.703 456.246 165.821C454.651 168.938 452.34 171.635 449.503 173.689C446.666 175.743 443.382 177.097 439.921 177.641C436.46 178.184 432.919 177.901 429.588 176.815L425.506 175.486C425.473 175.473 425.434 175.467 425.401 175.453L418.673 173.258C418.651 172.974 418.655 172.689 418.686 172.405C408.651 168.121 422.523 154.045 425.97 143.473C426.505 141.827 408.082 143.056 408.955 141.648C408.763 141.549 408.571 141.45 408.393 141.351C411.505 136.442 416.105 132.656 421.523 130.546C426.94 128.436 432.891 128.112 438.505 129.621C438.651 129.654 438.803 129.701 438.949 129.74C452.02 130.064 458.887 139.169 458.887 150.99C458.886 152.259 458.811 153.526 458.662 154.785Z" fill="#2F2E41"/>
<path d="M447.337 159.44C445.583 164.808 441.768 169.261 436.73 171.819C431.692 174.377 425.844 174.83 420.472 173.08C419.864 172.882 419.268 172.657 418.686 172.405C413.797 170.311 409.869 166.464 407.674 161.622C405.479 156.779 405.176 151.291 406.825 146.237C407.348 144.627 408.063 143.087 408.955 141.648C411.694 137.215 415.964 133.94 420.956 132.442C425.949 130.944 431.318 131.327 436.046 133.519C440.775 135.711 444.536 139.56 446.617 144.337C448.697 149.114 448.953 154.487 447.337 159.44Z" fill="#F5CAC2"/>
<path d="M425.506 175.487C425.473 175.473 425.434 175.467 425.401 175.453L418.673 173.258C418.651 172.974 418.655 172.689 418.686 172.405C418.886 170.192 420.441 167.873 422.528 165.37C423.872 163.77 424.806 161.866 425.25 159.824C425.695 157.783 425.635 155.663 425.077 153.65C424.52 151.636 423.48 149.788 422.049 148.265C420.617 146.742 418.836 145.59 416.86 144.908C416.803 144.888 416.745 144.868 416.688 144.848C414.039 143.964 411.455 142.894 408.955 141.648C408.763 141.549 408.571 141.45 408.393 141.35C406.713 140.425 405.495 139.499 404.959 138.613C405.761 136.157 407.038 133.883 408.718 131.92C410.399 129.958 412.45 128.345 414.754 127.175C417.059 126.005 419.571 125.3 422.148 125.1C424.725 124.9 427.316 125.21 429.773 126.011L433.676 127.281C438.599 128.88 442.689 132.359 445.054 136.96C447.806 138.931 449.976 141.827 451.676 145.245C460.223 162.395 443.725 181.331 425.506 175.487Z" fill="#2F2E41"/>
<path d="M438.386 279.21C438.386 280.373 438.033 281.509 437.374 282.467C436.715 283.425 435.781 284.162 434.695 284.579C434.18 284.776 433.638 284.897 433.087 284.936C432.942 284.949 432.79 284.956 432.644 284.956H421.537V338.814C421.372 339.032 421.2 339.251 421.028 339.469C420.075 340.685 419.109 341.902 418.13 343.099C417.919 343.363 417.707 343.621 417.502 343.879C417.178 344.269 416.86 344.659 416.543 345.042C416.43 345.175 416.324 345.3 416.219 345.432C415.676 346.08 415.134 346.728 414.578 347.376V347.383C414.571 347.39 414.571 347.39 414.571 347.396L414.294 347.714C413.85 348.236 413.407 348.765 412.951 349.287C412.331 348.943 411.783 348.483 411.337 347.932C411.06 347.6 410.824 347.236 410.635 346.847C410.629 346.841 410.629 346.834 410.622 346.821C410.614 346.806 410.608 346.791 410.602 346.775C410.231 346.001 410.041 345.153 410.047 344.295V284.956H385.147C384.412 284.96 383.683 284.819 383.003 284.539C382.146 284.197 381.384 283.653 380.783 282.953C380.182 282.253 379.759 281.418 379.55 280.519V280.513C379.24 279.207 379.404 277.834 380.013 276.638C380.007 276.632 380.007 276.632 380.013 276.632C380.27 276.109 380.612 275.633 381.026 275.223V275.217C381.026 275.21 381.026 275.21 381.032 275.204C381.568 274.656 382.208 274.22 382.915 273.923C383.621 273.625 384.38 273.472 385.147 273.471H432.644C434.167 273.472 435.627 274.077 436.704 275.153C437.78 276.229 438.385 277.688 438.386 279.21Z" fill="#141850"/>
<path d="M470.014 168.05C467.69 167.615 465.304 167.643 462.99 168.13C460.677 168.618 458.482 169.556 456.532 170.891C454.581 172.226 452.913 173.932 451.622 175.912C450.331 177.892 449.443 180.106 449.008 182.429V182.429C448.241 186.532 448.925 190.774 450.943 194.428C452.96 198.083 456.186 200.923 460.068 202.462L454.656 231.39L465.951 233.501L477.921 169.527L470.014 168.05Z" fill="#141850"/>
<path d="M453.754 146.779C458.868 146.779 463.015 142.635 463.015 137.522C463.015 132.41 458.868 128.266 453.754 128.266C448.639 128.266 444.492 132.41 444.492 137.522C444.492 142.635 448.639 146.779 453.754 146.779Z" fill="#2F2E41"/>
<path d="M561.715 164.1C557.697 165.44 553.4 165.668 549.165 165.741C536.841 165.954 524.204 164.875 512.987 159.767C501.77 154.66 492.114 144.953 489.62 132.888C488.546 127.688 488.672 121.897 485.393 117.719C481.502 112.76 473.682 112.084 468.235 115.258C462.788 118.432 459.608 124.608 458.683 130.842L456.489 134.407C456.54 136.702 459.025 138.229 461.312 138.444C463.599 138.66 465.899 138.03 468.19 138.2C473.21 138.573 477.303 142.865 478.767 147.68C480.23 152.494 479.526 157.701 478.273 162.575C477.021 167.448 475.232 172.203 474.517 177.183C473.802 182.164 474.287 187.569 477.219 191.66C479.42 194.729 482.774 196.765 486.183 198.393C494.437 202.334 503.479 204.353 512.626 204.296C521.774 204.24 530.79 202.11 538.995 198.067C547.2 194.025 554.381 188.174 559.996 180.957C565.612 173.739 569.516 165.342 571.415 156.398C569.495 160.173 565.734 162.76 561.715 164.1Z" fill="#2F2E41"/>
<path d="M383.904 359.834H365.041C364.004 359.833 363.001 359.458 362.218 358.778C361.435 358.098 360.924 357.158 360.778 356.131C359.613 347.565 359.613 338.881 360.778 330.315C360.922 329.3 361.423 328.37 362.191 327.692C362.959 327.014 363.944 326.631 364.969 326.613C370.904 323.954 377.295 323.954 383.969 326.613C384.591 326.621 385.203 326.765 385.763 327.035C386.323 327.305 386.817 327.694 387.21 328.175C387.621 328.675 387.914 329.261 388.07 329.889C388.225 330.517 388.239 331.171 388.11 331.805C386.594 339.342 386.594 347.104 388.11 354.641C388.239 355.275 388.225 355.93 388.07 356.557C387.914 357.185 387.621 357.771 387.21 358.271C386.81 358.761 386.306 359.155 385.734 359.425C385.162 359.695 384.537 359.835 383.904 359.834Z" fill="#303179"/>
<path d="M381.929 336.456H366.052C365.789 336.456 365.537 336.351 365.351 336.165C365.165 335.979 365.06 335.727 365.06 335.464C365.06 335.201 365.165 334.949 365.351 334.763C365.537 334.577 365.789 334.472 366.052 334.472H381.929C382.192 334.472 382.444 334.577 382.631 334.763C382.817 334.949 382.921 335.201 382.921 335.464C382.921 335.727 382.817 335.979 382.631 336.165C382.444 336.351 382.192 336.456 381.929 336.456Z" fill="white"/>
<path d="M381.929 344.39H366.052C365.789 344.39 365.537 344.285 365.351 344.099C365.165 343.913 365.06 343.661 365.06 343.398C365.06 343.135 365.165 342.883 365.351 342.697C365.537 342.511 365.789 342.406 366.052 342.406H381.929C382.192 342.406 382.444 342.511 382.631 342.697C382.817 342.883 382.921 343.135 382.921 343.398C382.921 343.661 382.817 343.913 382.631 344.099C382.444 344.285 382.192 344.39 381.929 344.39Z" fill="white"/>
<path d="M381.929 352.324H366.052C365.789 352.324 365.537 352.219 365.351 352.033C365.165 351.847 365.06 351.595 365.06 351.332C365.06 351.069 365.165 350.817 365.351 350.631C365.537 350.445 365.789 350.34 366.052 350.34H381.929C382.192 350.34 382.444 350.445 382.631 350.631C382.817 350.817 382.921 351.069 382.921 351.332C382.921 351.595 382.817 351.847 382.631 352.033C382.444 352.219 382.192 352.324 381.929 352.324Z" fill="white"/>
<path d="M158.499 149.688V149.686C158.519 149.525 158.601 149.378 158.728 149.277C158.855 149.176 159.016 149.128 159.177 149.144L261.238 149.416C261.399 149.401 261.559 149.449 261.685 149.551C261.811 149.652 261.892 149.799 261.911 149.959V149.961C261.891 150.122 261.809 150.269 261.683 150.37C261.556 150.471 261.395 150.519 261.233 150.503L159.173 150.231C159.012 150.246 158.851 150.198 158.725 150.096C158.599 149.995 158.518 149.848 158.499 149.688Z" fill="#141850"/>
<path d="M185.488 212.512L181.155 217.276C180.954 217.444 180.709 217.552 180.448 217.586C180.188 217.62 179.923 217.578 179.686 217.466C178.967 217.212 178.328 216.774 177.831 216.195C174.734 212.682 171.257 209.523 167.464 206.775C166.841 206.336 166.344 205.741 166.022 205.05C165.892 204.828 165.826 204.573 165.832 204.316C165.837 204.058 165.915 203.807 166.055 203.591C166.098 200.984 167.567 199.369 170.422 198.79C170.922 198.269 172.053 198.467 173.066 199.257C177.235 202.508 181.153 206.068 184.787 209.908C185.679 210.851 185.981 211.97 185.488 212.512Z" fill="#303179"/>
<path d="M174.35 202.257L170.703 206.267C170.577 206.405 170.273 206.335 170.024 206.108C169.776 205.882 169.676 205.587 169.802 205.449L173.45 201.439C173.575 201.301 173.879 201.372 174.128 201.598C174.376 201.824 174.476 202.119 174.35 202.257Z" fill="white"/>
<path d="M177.952 205.53L174.305 209.54C174.179 209.679 173.875 209.608 173.626 209.382C173.378 209.156 173.278 208.86 173.404 208.722L177.052 204.712C177.178 204.574 177.481 204.645 177.73 204.871C177.979 205.097 178.078 205.392 177.952 205.53Z" fill="white"/>
<path d="M181.554 208.804L177.906 212.813C177.781 212.952 177.477 212.881 177.228 212.655C176.98 212.429 176.88 212.133 177.006 211.995L180.653 207.985C180.779 207.847 181.083 207.918 181.332 208.144C181.58 208.37 181.68 208.665 181.554 208.804Z" fill="white"/>
<path d="M389.431 335.734C390.344 335.195 391.127 334.463 391.726 333.588C392.325 332.714 392.725 331.719 392.898 330.674C393.07 329.628 393.011 328.558 392.725 327.538C392.439 326.517 391.933 325.572 391.242 324.769L404.196 302.503L390.825 303.256L380.574 324.285C379.3 325.534 378.53 327.208 378.408 328.988C378.286 330.767 378.822 332.53 379.914 333.941C381.006 335.353 382.578 336.315 384.332 336.645C386.086 336.975 387.9 336.651 389.431 335.734V335.734Z" fill="#F5CAC2"/>
<path d="M394.658 319.364L382.688 310.046L404.439 267.917L396.289 214.268C395.886 211.616 396.073 208.908 396.835 206.336C397.597 203.765 398.916 201.392 400.699 199.387C402.481 197.382 404.684 195.794 407.15 194.735C409.616 193.677 412.284 193.174 414.967 193.262C419.811 193.427 424.392 195.506 427.705 199.042C431.018 202.579 432.792 207.285 432.637 212.127L430.624 273.214L394.658 319.364Z" fill="#ED7966"/>
<path d="M290.85 186.618H250.431C249.347 186.617 248.309 186.187 247.543 185.421C246.777 184.655 246.346 183.617 246.345 182.535V129.044C246.346 127.961 246.777 126.923 247.543 126.158C248.309 125.392 249.347 124.962 250.431 124.96H290.85C291.933 124.962 292.972 125.392 293.738 126.158C294.504 126.923 294.935 127.961 294.936 129.044V182.535C294.935 183.617 294.504 184.655 293.738 185.421C292.972 186.187 291.933 186.617 290.85 186.618Z" fill="#ED7966"/>
<path d="M288.009 183.215H253.272C252.31 183.214 251.388 182.832 250.708 182.152C250.028 181.472 249.645 180.55 249.644 179.589V131.989C249.645 131.028 250.028 130.107 250.708 129.427C251.388 128.747 252.31 128.365 253.272 128.364H288.009C288.971 128.365 289.893 128.747 290.573 129.427C291.253 130.107 291.635 131.028 291.637 131.989V179.589C291.635 180.55 291.253 181.472 290.573 182.152C289.893 182.832 288.971 183.214 288.009 183.215Z" fill="white"/>
<path d="M284.544 137.41H256.737C256.618 137.41 256.499 137.387 256.389 137.341C256.279 137.296 256.179 137.229 256.094 137.145C256.01 137.061 255.943 136.961 255.897 136.851C255.851 136.74 255.828 136.622 255.828 136.503C255.828 136.384 255.851 136.266 255.897 136.156C255.943 136.046 256.01 135.946 256.094 135.861C256.179 135.777 256.279 135.71 256.389 135.665C256.499 135.62 256.618 135.596 256.737 135.597H284.544C284.663 135.596 284.781 135.62 284.891 135.665C285.002 135.71 285.102 135.777 285.186 135.861C285.271 135.946 285.338 136.046 285.384 136.156C285.429 136.266 285.453 136.384 285.453 136.503C285.453 136.622 285.429 136.74 285.384 136.851C285.338 136.961 285.271 137.061 285.186 137.145C285.102 137.229 285.002 137.296 284.891 137.341C284.781 137.387 284.663 137.41 284.544 137.41Z" fill="#303179"/>
<path d="M284.544 140.991H256.737C256.496 140.991 256.266 140.896 256.096 140.726C255.926 140.556 255.83 140.325 255.83 140.085C255.83 139.844 255.926 139.614 256.096 139.444C256.266 139.274 256.496 139.178 256.737 139.178H284.544C284.663 139.178 284.781 139.202 284.891 139.247C285.001 139.293 285.101 139.36 285.185 139.444C285.269 139.528 285.336 139.628 285.381 139.738C285.427 139.848 285.45 139.966 285.45 140.085C285.45 140.204 285.427 140.322 285.381 140.432C285.336 140.541 285.269 140.641 285.185 140.726C285.101 140.81 285.001 140.877 284.891 140.922C284.781 140.968 284.663 140.991 284.544 140.991Z" fill="#303179"/>
<path d="M268.79 144.573H256.737C256.496 144.573 256.266 144.477 256.096 144.307C255.926 144.137 255.83 143.907 255.83 143.666C255.83 143.426 255.926 143.195 256.096 143.025C256.266 142.855 256.496 142.76 256.737 142.76H268.79C269.031 142.76 269.262 142.855 269.432 143.025C269.602 143.195 269.697 143.426 269.697 143.666C269.697 143.907 269.602 144.137 269.432 144.307C269.262 144.477 269.031 144.573 268.79 144.573Z" fill="#303179"/>
<path d="M284.544 152.074H256.737C256.618 152.074 256.499 152.051 256.389 152.005C256.279 151.96 256.179 151.893 256.094 151.809C256.01 151.725 255.943 151.625 255.897 151.515C255.851 151.405 255.828 151.287 255.828 151.167C255.828 151.048 255.851 150.93 255.897 150.82C255.943 150.71 256.01 150.61 256.094 150.526C256.179 150.441 256.279 150.375 256.389 150.329C256.499 150.284 256.618 150.261 256.737 150.261H284.544C284.663 150.261 284.781 150.284 284.891 150.329C285.002 150.375 285.102 150.441 285.186 150.526C285.271 150.61 285.338 150.71 285.384 150.82C285.429 150.93 285.453 151.048 285.453 151.167C285.453 151.287 285.429 151.405 285.384 151.515C285.338 151.625 285.271 151.725 285.186 151.809C285.102 151.893 285.002 151.96 284.891 152.005C284.781 152.051 284.663 152.074 284.544 152.074Z" fill="#F5CAC2"/>
<path d="M284.544 155.655H256.737C256.618 155.656 256.5 155.632 256.389 155.587C256.279 155.542 256.179 155.475 256.094 155.391C256.01 155.306 255.943 155.206 255.897 155.096C255.851 154.986 255.828 154.868 255.828 154.749C255.828 154.63 255.851 154.512 255.897 154.401C255.943 154.291 256.01 154.191 256.094 154.107C256.179 154.023 256.279 153.956 256.389 153.911C256.5 153.865 256.618 153.842 256.737 153.842H284.544C284.663 153.842 284.781 153.865 284.891 153.911C285.002 153.956 285.102 154.023 285.186 154.107C285.271 154.191 285.338 154.291 285.384 154.401C285.429 154.512 285.453 154.63 285.453 154.749C285.453 154.868 285.429 154.986 285.384 155.096C285.338 155.206 285.271 155.306 285.186 155.391C285.102 155.475 285.002 155.542 284.891 155.587C284.781 155.632 284.663 155.656 284.544 155.655Z" fill="#F5CAC2"/>
<path d="M268.79 159.237H256.737C256.496 159.237 256.266 159.141 256.096 158.971C255.926 158.801 255.83 158.571 255.83 158.33C255.83 158.09 255.926 157.859 256.096 157.689C256.266 157.519 256.496 157.424 256.737 157.424H268.79C269.031 157.424 269.262 157.519 269.432 157.689C269.602 157.859 269.697 158.09 269.697 158.33C269.697 158.571 269.602 158.801 269.432 158.971C269.262 159.141 269.031 159.237 268.79 159.237Z" fill="#F5CAC2"/>
<path d="M284.544 166.738H256.737C256.496 166.738 256.266 166.642 256.096 166.472C255.926 166.302 255.83 166.072 255.83 165.831C255.83 165.591 255.926 165.36 256.096 165.191C256.266 165.021 256.496 164.925 256.737 164.925H284.544C284.784 164.925 285.015 165.021 285.185 165.191C285.355 165.36 285.45 165.591 285.45 165.831C285.45 166.072 285.355 166.302 285.185 166.472C285.015 166.642 284.784 166.738 284.544 166.738Z" fill="#F5CAC2"/>
<path d="M284.544 170.319H256.737C256.496 170.319 256.266 170.224 256.096 170.054C255.926 169.884 255.83 169.653 255.83 169.413C255.83 169.172 255.926 168.942 256.096 168.772C256.266 168.602 256.496 168.506 256.737 168.506H284.544C284.784 168.506 285.015 168.602 285.185 168.772C285.355 168.942 285.45 169.172 285.45 169.413C285.45 169.653 285.355 169.884 285.185 170.054C285.015 170.224 284.784 170.319 284.544 170.319Z" fill="#F5CAC2"/>
<path d="M268.79 173.901H256.737C256.496 173.901 256.266 173.805 256.096 173.635C255.926 173.465 255.83 173.235 255.83 172.994C255.83 172.754 255.926 172.523 256.096 172.353C256.266 172.183 256.496 172.088 256.737 172.088H268.79C269.031 172.088 269.262 172.183 269.432 172.353C269.602 172.523 269.697 172.754 269.697 172.994C269.697 173.235 269.602 173.465 269.432 173.635C269.262 173.805 269.031 173.901 268.79 173.901Z" fill="#F5CAC2"/>
<path d="M153.306 115.346L261.739 22.6489H261.911V24.0095H262.242L154.191 116.38L153.306 115.346Z" fill="#2F2E41"/>
<path d="M228.171 221.802H178.313C177.534 221.803 176.787 222.112 176.236 222.663C175.685 223.213 175.376 223.96 175.375 224.738V255.763C175.376 256.541 175.685 257.287 176.236 257.838C176.787 258.388 177.534 258.698 178.313 258.699H228.171C228.95 258.698 229.696 258.388 230.247 257.838C230.798 257.287 231.108 256.541 231.109 255.763V224.738C231.108 223.96 230.798 223.213 230.247 222.663C229.696 222.112 228.95 221.803 228.171 221.802Z" fill="white"/>
<path d="M228.171 221.802H178.313C177.534 221.803 176.787 222.112 176.236 222.663C175.685 223.213 175.376 223.96 175.375 224.738V255.763C175.376 256.541 175.685 257.287 176.236 257.838C176.787 258.388 177.534 258.698 178.313 258.699H228.171C228.95 258.698 229.696 258.388 230.247 257.838C230.798 257.287 231.108 256.541 231.109 255.763V224.738C231.108 223.96 230.798 223.213 230.247 222.663C229.696 222.112 228.95 221.803 228.171 221.802ZM229.135 244.087C229.123 247.245 227.873 250.273 225.653 252.521C223.433 254.769 220.42 256.058 217.26 256.111C212.201 256.177 220.059 256.203 213.958 256.203C200.006 256.203 185.457 256.069 180.029 255.983C179.315 255.968 178.635 255.675 178.134 255.166C177.633 254.657 177.351 253.972 177.349 253.259V224.74C177.349 224.485 177.45 224.24 177.631 224.059C177.812 223.878 178.057 223.776 178.313 223.775H228.169C228.424 223.775 228.67 223.876 228.851 224.057C229.032 224.237 229.134 224.482 229.135 224.738V244.087Z" fill="#F5CAC2"/>
<path d="M221.594 241.603H183.607C183.271 241.602 182.943 241.498 182.669 241.304C182.394 241.111 182.186 240.837 182.072 240.521L176.206 224.07C176.118 223.825 176.091 223.562 176.126 223.304C176.161 223.045 176.258 222.799 176.408 222.586C176.558 222.373 176.758 222.199 176.989 222.079C177.22 221.959 177.477 221.896 177.738 221.895L228.684 221.805H228.686C228.956 221.805 229.221 221.872 229.459 222C229.696 222.127 229.898 222.312 230.046 222.537C230.195 222.762 230.285 223.02 230.309 223.289C230.333 223.557 230.29 223.827 230.184 224.075L230.095 224.037L230.184 224.075L223.091 240.616C222.966 240.909 222.757 241.159 222.491 241.334C222.224 241.509 221.912 241.603 221.594 241.603Z" fill="#F5CAC2"/>
<path d="M203.213 245.659C205.455 245.659 207.272 243.843 207.272 241.603C207.272 239.362 205.455 237.546 203.213 237.546C200.971 237.546 199.154 239.362 199.154 241.603C199.154 243.843 200.971 245.659 203.213 245.659Z" fill="#141850"/>
<path d="M94.0234 404.904C93.2295 410.749 89.2538 416.025 84.1402 419.47C82.9219 420.293 81.6361 421.012 80.2968 421.618C78.8241 422.283 77.3053 422.84 75.7521 423.285C68.9384 425.275 61.5756 425.361 54.4113 425.4C47.1676 425.447 39.9262 425.493 32.6869 425.539C26.9779 425.572 21.0838 425.572 15.8114 423.384C15.7326 423.355 15.6553 423.322 15.5799 423.285C10.4001 421.05 5.98777 416.137 6.11346 410.518C6.16399 408.538 6.72448 406.604 7.7408 404.904C8.41356 403.762 9.22208 402.705 10.1488 401.757C13.0198 398.782 17.0021 396.448 20.7331 394.57C26.8853 391.483 33.8379 387.476 35.6373 381.129C35.8272 380.461 35.9556 379.777 36.021 379.086C36.4443 374.722 34.3208 370.709 31.6152 367.119C31.3506 366.762 31.0728 366.405 30.7883 366.048C30.1797 365.287 29.5513 364.54 28.9294 363.826C28.6648 363.522 28.4002 363.211 28.129 362.9C25.6284 360.005 23.108 356.91 21.7916 353.452C21.2248 352.005 20.9094 350.471 20.8588 348.917C20.7133 343.304 26.9912 337.651 31.7409 340.302C34.0695 340.077 36.398 339.846 38.7266 339.608C41.5844 339.323 44.4289 339.039 47.2801 338.748H47.2867C47.9284 338.695 48.5568 338.629 49.1853 338.563C55.1192 337.975 61.0486 337.382 66.9737 336.784C69.6065 336.527 72.7025 336.427 74.4158 338.451C76.2813 340.659 75.3155 344.15 73.4698 346.378C71.6242 348.599 69.0641 350.173 67.3309 352.474C65.0883 355.449 64.5657 359.211 65.2074 362.9C65.3932 363.972 65.6721 365.025 66.0409 366.048C66.6886 367.875 67.5857 369.603 68.7069 371.185C72.5966 376.633 78.3585 380.388 83.4721 384.706C88.5923 389.03 93.3817 394.517 94.0829 401.169C94.1028 401.36 94.1226 401.559 94.1292 401.757C94.2035 402.807 94.168 403.862 94.0234 404.904Z" fill="#ED7966"/>
<path d="M52.4213 344.364C47.2594 339.268 42.8627 333.451 39.3677 327.096C35.8832 320.773 33.3096 313.99 31.723 306.948C30.1144 299.802 29.5817 292.455 30.1423 285.151C31.3048 270.276 36.8044 256.067 45.961 244.283C46.5201 243.566 47.0926 242.86 47.6785 242.165C48.3317 241.388 49.4417 242.507 48.793 243.279C39.4492 254.477 33.5953 268.167 31.9556 282.656C30.7698 293.727 32.0939 304.923 35.8298 315.413C39.5657 325.903 45.6174 335.418 53.5358 343.25C54.2591 343.963 53.1445 345.077 52.4213 344.364V344.364Z" fill="#ED7966"/>
<path d="M45.3257 245.621C45.9638 245.382 46.5886 245.11 47.1976 244.804C47.2283 244.852 47.2584 244.9 47.2892 244.947L45.3257 245.621Z" fill="#ED7966"/>
<path d="M57.4939 231.725C57.2359 233.169 56.7703 234.567 56.1113 235.877C54.2919 239.529 51.3938 242.534 47.8092 244.486C47.6108 244.591 47.4057 244.704 47.2006 244.803C46.9559 244.42 46.7045 244.036 46.4663 243.653C44.7779 241.14 43.5296 238.359 42.775 235.428C42.0077 231.983 42.4244 228.115 44.6339 225.358C46.8368 222.601 51.0441 221.365 54.0937 223.15C54.9742 223.676 55.7213 224.397 56.2767 225.259C55.9724 225.636 55.6681 226.006 55.3638 226.383C55.3371 226.418 55.3084 226.451 55.2778 226.482C55.0132 226.813 54.742 227.137 54.4774 227.467C53.3726 228.823 52.2745 230.185 51.1698 231.533C52.7269 231.82 54.3114 231.928 55.893 231.857C56.0187 231.851 56.151 231.844 56.2767 231.838C56.6803 231.811 57.0904 231.778 57.4939 231.725Z" fill="#ED7966"/>
<path d="M35.1808 258.84L34.7574 264.354L34.645 265.848C34.5259 265.788 34.4002 265.729 34.2811 265.669C30.1664 263.628 26.5349 260.733 23.6293 257.176C20.7238 253.62 18.611 249.485 17.4321 245.048C17.038 243.508 16.7616 241.941 16.6052 240.36C18.7486 240.029 20.8985 239.692 23.0418 239.362C21.3066 237.106 19.133 235.223 16.6515 233.828C17.2174 228.31 19.2124 223.034 22.4399 218.522C22.9956 227.765 32.6803 233.643 36.226 242.191C37.3138 244.867 37.7847 247.753 37.6038 250.635C37.4228 253.517 36.5947 256.321 35.1808 258.84Z" fill="#ED7966"/>
<path d="M33.3417 307.27C32.8257 307.296 32.3097 307.31 31.8003 307.303C27.398 307.275 23.0478 306.349 19.0164 304.581C14.985 302.813 11.3574 300.241 8.35593 297.022C5.92628 294.363 3.97273 291.305 2.58083 287.984C2.62714 287.977 2.66683 287.971 2.71313 287.964C4.85647 287.633 7.00643 287.296 9.14977 286.966C6.8734 284.001 3.84793 281.696 0.384577 280.288C-0.0838168 277.3 -0.119466 274.261 0.278731 271.263C5.12109 279.151 16.4398 279.785 23.5908 285.657C27.0013 288.498 29.3262 292.428 30.173 296.784C30.3841 297.86 30.497 298.953 30.5104 300.05C30.517 300.315 30.517 300.572 30.5104 300.83L30.6691 301.187L33.3417 307.27Z" fill="#ED7966"/>
<path d="M54.6163 316.401C53.247 318.08 51.8776 319.773 50.5083 321.452C52.1918 321.761 53.9069 321.863 55.6152 321.756C54.0982 327.187 51.1859 332.126 47.1676 336.084C46.7905 336.454 46.4002 336.817 46.0033 337.161C45.9239 337.234 45.8379 337.307 45.7585 337.379L45.4013 336.368L45.3947 336.361L43.3704 330.761C40.8022 328.181 39.0237 324.921 38.2436 321.366V321.353C37.7691 319.272 37.6595 317.124 37.9195 315.006C39.0507 305.822 46.817 297.564 44.8853 288.513C49.1415 291.958 52.4438 296.435 54.4774 301.518C53.3727 302.873 52.2745 304.235 51.1698 305.584C52.7269 305.87 54.3114 305.979 55.8931 305.908C56.4471 308.146 56.7489 310.439 56.7927 312.744C56.7994 313.075 56.7994 313.399 56.7927 313.73C56.0981 314.589 55.3969 315.442 54.7023 316.302C54.6756 316.336 54.6469 316.369 54.6163 316.401Z" fill="#ED7966"/>
<path d="M296.804 45.129H256.384C255.301 45.1277 254.262 44.6971 253.496 43.9315C252.73 43.166 252.3 42.128 252.298 41.0454V4.08357C252.3 3.00091 252.73 1.96296 253.496 1.1974C254.262 0.431852 255.301 0.00122846 256.384 0H296.804C297.887 0.00122321 298.925 0.431851 299.691 1.1974C300.457 1.96296 300.888 3.00091 300.889 4.08357V41.0454C300.888 42.128 300.457 43.166 299.691 43.9316C298.925 44.6971 297.887 45.1277 296.804 45.129Z" fill="#ED7966"/>
<path d="M293.963 41.7255H259.225C258.264 41.7244 257.342 41.3421 256.661 40.6624C255.981 39.9826 255.599 39.061 255.598 38.0998V7.0292C255.599 6.06792 255.981 5.14632 256.661 4.4666C257.342 3.78687 258.264 3.40453 259.225 3.40344H293.963C294.924 3.40453 295.846 3.78687 296.527 4.4666C297.207 5.14632 297.589 6.06792 297.59 7.0292V38.0998C297.589 39.061 297.207 39.9826 296.527 40.6624C295.846 41.3421 294.924 41.7244 293.963 41.7255Z" fill="white"/>
<path d="M290.497 12.4493H262.691C262.571 12.4496 262.453 12.4264 262.343 12.381C262.232 12.3356 262.132 12.2689 262.048 12.1847C261.963 12.1005 261.896 12.0005 261.851 11.8903C261.805 11.7802 261.781 11.6621 261.781 11.5429C261.781 11.4237 261.805 11.3056 261.851 11.1955C261.896 11.0854 261.963 10.9853 262.048 10.9011C262.132 10.8169 262.232 10.7502 262.343 10.7048C262.453 10.6594 262.571 10.6362 262.691 10.6365H290.497C290.616 10.6362 290.735 10.6594 290.845 10.7048C290.955 10.7502 291.056 10.8169 291.14 10.9011C291.224 10.9853 291.291 11.0854 291.337 11.1955C291.383 11.3056 291.406 11.4237 291.406 11.5429C291.406 11.6621 291.383 11.7802 291.337 11.8903C291.291 12.0005 291.224 12.1005 291.14 12.1847C291.056 12.2689 290.955 12.3356 290.845 12.381C290.735 12.4264 290.616 12.4496 290.497 12.4493Z" fill="#303179"/>
<path d="M290.497 16.0308H262.691C262.45 16.0308 262.219 15.9353 262.049 15.7653C261.879 15.5953 261.784 15.3648 261.784 15.1244C261.784 14.884 261.879 14.6534 262.049 14.4834C262.219 14.3135 262.45 14.218 262.691 14.218H290.497C290.738 14.218 290.968 14.3135 291.138 14.4834C291.309 14.6534 291.404 14.884 291.404 15.1244C291.404 15.3648 291.309 15.5953 291.138 15.7653C290.968 15.9353 290.738 16.0308 290.497 16.0308Z" fill="#303179"/>
<path d="M274.744 19.6123H262.691C262.45 19.6123 262.219 19.5168 262.049 19.3469C261.879 19.1769 261.784 18.9463 261.784 18.7059C261.784 18.4655 261.879 18.235 262.049 18.065C262.219 17.895 262.45 17.7995 262.691 17.7995H274.744C274.985 17.7995 275.215 17.895 275.385 18.065C275.555 18.235 275.651 18.4655 275.651 18.7059C275.651 18.9463 275.555 19.1769 275.385 19.3469C275.215 19.5168 274.985 19.6123 274.744 19.6123Z" fill="#303179"/>
<path d="M290.497 27.1134H262.691C262.571 27.1137 262.453 27.0905 262.343 27.0451C262.232 26.9997 262.132 26.933 262.048 26.8488C261.963 26.7646 261.896 26.6646 261.851 26.5545C261.805 26.4443 261.781 26.3263 261.781 26.207C261.781 26.0878 261.805 25.9697 261.851 25.8596C261.896 25.7495 261.963 25.6495 262.048 25.5653C262.132 25.4811 262.232 25.4144 262.343 25.369C262.453 25.3235 262.571 25.3003 262.691 25.3007H290.497C290.616 25.3003 290.735 25.3235 290.845 25.369C290.955 25.4144 291.056 25.4811 291.14 25.5653C291.224 25.6495 291.291 25.7495 291.337 25.8596C291.383 25.9697 291.406 26.0878 291.406 26.207C291.406 26.3263 291.383 26.4443 291.337 26.5545C291.291 26.6646 291.224 26.7646 291.14 26.8488C291.056 26.933 290.955 26.9997 290.845 27.0451C290.735 27.0905 290.616 27.1137 290.497 27.1134Z" fill="#F5CAC2"/>
<path d="M290.497 30.6949H262.691C262.571 30.6952 262.453 30.672 262.343 30.6266C262.232 30.5812 262.132 30.5145 262.048 30.4303C261.963 30.3461 261.896 30.2461 261.851 30.1359C261.805 30.0258 261.781 29.9077 261.781 29.7885C261.781 29.6693 261.805 29.5512 261.851 29.4411C261.896 29.3309 261.963 29.2309 262.048 29.1467C262.132 29.0625 262.232 28.9958 262.343 28.9504C262.453 28.905 262.571 28.8818 262.691 28.8821H290.497C290.617 28.8818 290.735 28.905 290.845 28.9504C290.955 28.9958 291.056 29.0625 291.14 29.1467C291.225 29.2309 291.292 29.3309 291.337 29.4411C291.383 29.5512 291.407 29.6693 291.407 29.7885C291.407 29.9077 291.383 30.0258 291.337 30.1359C291.292 30.2461 291.225 30.3461 291.14 30.4303C291.056 30.5145 290.955 30.5812 290.845 30.6266C290.735 30.672 290.617 30.6952 290.497 30.6949Z" fill="#F5CAC2"/>
<path d="M274.744 34.2765H262.691C262.45 34.2765 262.219 34.181 262.049 34.011C261.879 33.841 261.784 33.6104 261.784 33.37C261.784 33.1296 261.879 32.8991 262.049 32.7291C262.219 32.5591 262.45 32.4636 262.691 32.4636H274.744C274.985 32.4636 275.215 32.5591 275.385 32.7291C275.555 32.8991 275.651 33.1296 275.651 33.37C275.651 33.6104 275.555 33.841 275.385 34.011C275.215 34.181 274.985 34.2765 274.744 34.2765Z" fill="#F5CAC2"/>
</svg>
