<svg width="273" height="84" viewBox="0 0 273 84" fill="none" xmlns="http://www.w3.org/2000/svg">
<path d="M25.7169 83.2849H22.2059C21.5899 83.2849 21.2614 82.9845 21.2203 82.3837L20.05 63.9864L13.7978 80.084H11.5495L5.63617 63.9864L4.49662 82.3837C4.45555 82.9845 4.12703 83.2849 3.51106 83.2849H0V81.6689L2.09431 81.4514L3.20307 62.4637L1.47834 62.2151V60.5991H6.00575C6.5396 60.5991 6.89892 60.8581 7.08371 61.376L12.6583 77.1007L18.6024 61.376C18.7872 60.8581 19.1465 60.5991 19.6804 60.5991H24.2078V62.2151L22.4831 62.4637L23.6226 81.4514L25.7169 81.6689V83.2849Z" fill="white"/>
<path d="M40.4789 80.2083V79.7733C39.1443 82.4044 37.05 83.72 34.196 83.72C32.8203 83.72 31.7218 83.2953 30.9005 82.4458C30.0792 81.5964 29.6686 80.4362 29.6686 78.9653C29.6686 76.9557 30.4899 75.4433 32.1325 74.4281C33.7751 73.4129 36.5572 72.9054 40.4789 72.9054V71.6002C40.4789 69.8184 40.1607 68.5961 39.5242 67.9331C38.8877 67.2702 37.8508 66.9387 36.4135 66.9387C34.9967 66.9387 33.4055 67.4359 31.6397 68.4304L30.8389 66.5658C32.9538 65.5713 34.9659 65.0741 36.8755 65.0741C39.8527 65.0741 41.7109 66.1307 42.45 68.2439C42.758 69.114 42.912 70.1706 42.912 71.4137V79.9286C42.912 81.0681 43.3432 81.6379 44.2056 81.6379C44.493 81.6379 44.9139 81.5757 45.4683 81.4514L45.7455 83.316C44.9447 83.5853 44.1645 83.72 43.4048 83.72C41.4542 83.72 40.4789 82.5494 40.4789 80.2083ZM40.4789 74.4903C34.812 74.4903 31.9785 75.9198 31.9785 78.7788C31.9785 79.7318 32.2351 80.4777 32.7484 81.0163C33.2823 81.5343 34.0215 81.7932 34.966 81.7932C36.4443 81.7932 37.7173 81.1924 38.785 79.9908C39.8527 78.7892 40.4173 77.08 40.4789 74.8632V74.4903Z" fill="white"/>
<path d="M53.547 74.5835V81.4514L56.6268 81.6689V83.2849H48.958V81.6689L51.1139 81.4514V67.3738L48.958 67.1251V65.5092H52.2226C52.8591 65.5092 53.1774 65.8303 53.1774 66.4725V70.326C53.7318 68.8965 54.5633 67.6845 55.6721 66.6901C56.8014 65.6749 58.1565 65.1362 59.7375 65.0741V67.2184C58.0128 67.2805 56.5447 67.9849 55.3333 69.3316C54.1424 70.6782 53.547 72.4289 53.547 74.5835Z" fill="white"/>
<path d="M74.9203 80.9542C75.2694 81.4928 75.68 81.7622 76.1523 81.7622C76.6451 81.7622 77.0968 81.7 77.5074 81.5757L77.7846 83.316C77.1276 83.5853 76.4295 83.72 75.6903 83.72C74.6021 83.72 73.7397 83.2124 73.1032 82.1972L68.237 74.5524H66.1427V81.4514L68.6066 81.6689V83.2849H61.5537V81.6689L63.7096 81.4514V61.2206L61.5537 60.972V59.356H65.1879C65.8244 59.356 66.1427 59.6771 66.1427 60.3194V72.8743H68.5758L73.2264 66.1307C73.4933 65.7163 73.8732 65.5092 74.366 65.5092H76.8607V67.1251L74.9203 67.3738L70.3621 73.8687L74.9203 80.9542Z" fill="white"/>
<path d="M94.8021 74.9253H82.6674C82.6674 77.225 83.2423 79.0171 84.3921 80.3016C85.2956 81.3167 86.5275 81.8243 88.088 81.8243C89.669 81.8243 91.3629 81.3582 93.1698 80.4259L93.9398 82.2283C91.866 83.2227 90.018 83.72 88.396 83.72C86.7944 83.72 85.4701 83.461 84.4229 82.9431C83.3963 82.4044 82.5853 81.6896 81.9898 80.7988C80.84 78.9963 80.2651 76.9557 80.2651 74.6767C80.2651 72.0249 80.8195 69.7977 81.9282 67.9953C82.5032 67.0837 83.2834 66.3689 84.269 65.851C85.275 65.3331 86.4454 65.0741 87.78 65.0741C89.977 65.0741 91.6915 65.8303 92.9234 67.3427C94.1759 68.8551 94.8021 70.875 94.8021 73.4026V74.9253ZM92.369 73.1851C92.369 71.2997 91.9584 69.7977 91.1371 68.679C90.3158 67.5395 89.1352 66.9698 87.5952 66.9698C86.0553 66.9698 84.8952 67.5602 84.115 68.7411C83.3347 69.922 82.8727 71.4033 82.729 73.1851H92.369Z" fill="white"/>
<path d="M97.7533 67.2184V65.5092H100.433V61.4692L102.866 60.9099V65.5092H106.223V67.2184H102.866V79.9286C102.866 81.0474 103.318 81.6068 104.221 81.6068C104.816 81.6068 105.391 81.4928 105.946 81.2649L106.223 83.1606C105.258 83.5335 104.283 83.72 103.297 83.72C102.332 83.72 101.613 83.4403 101.141 82.8809C100.669 82.3008 100.433 81.3892 100.433 80.1462V67.2184H97.7533Z" fill="white"/>
<path d="M115.972 72.8121H117.789C120.992 72.8121 122.594 71.0615 122.594 67.5602C122.594 64.0589 120.992 62.3083 117.789 62.3083H114.032V81.4514L116.711 81.7V83.2849H109.658V81.6689L111.568 81.4514V62.4637L109.658 62.2151V60.5991H117.789C120.15 60.5991 121.937 61.1895 123.148 62.3704C124.38 63.5514 124.996 65.302 124.996 67.6224C124.996 69.922 124.39 71.6934 123.179 72.9364C121.967 74.1588 120.171 74.77 117.789 74.77H115.972V72.8121Z" fill="white"/>
<path d="M132.361 60.3194V79.9286C132.361 81.0681 132.803 81.6379 133.686 81.6379C133.994 81.6379 134.425 81.5757 134.979 81.4514L135.256 83.316C134.455 83.5853 133.665 83.72 132.885 83.72C130.914 83.72 129.928 82.5494 129.928 80.2083V61.2206L128.08 60.972V59.356H131.437C132.053 59.356 132.361 59.6771 132.361 60.3194Z" fill="white"/>
<path d="M148.996 80.2083V79.7733C147.662 82.4044 145.567 83.72 142.713 83.72C141.338 83.72 140.239 83.2953 139.418 82.4458C138.597 81.5964 138.186 80.4362 138.186 78.9653C138.186 76.9557 139.007 75.4433 140.65 74.4281C142.292 73.4129 145.075 72.9054 148.996 72.9054V71.6002C148.996 69.8184 148.678 68.5961 148.042 67.9331C147.405 67.2702 146.368 66.9387 144.931 66.9387C143.514 66.9387 141.923 67.4359 140.157 68.4304L139.356 66.5658C141.471 65.5713 143.483 65.0741 145.393 65.0741C148.37 65.0741 150.228 66.1307 150.967 68.2439C151.275 69.114 151.429 70.1706 151.429 71.4137V79.9286C151.429 81.0681 151.861 81.6379 152.723 81.6379C153.01 81.6379 153.431 81.5757 153.986 81.4514L154.263 83.316C153.462 83.5853 152.682 83.72 151.922 83.72C149.972 83.72 148.996 82.5494 148.996 80.2083ZM148.996 74.4903C143.329 74.4903 140.496 75.9198 140.496 78.7788C140.496 79.7318 140.753 80.4777 141.266 81.0163C141.8 81.5343 142.539 81.7932 143.483 81.7932C144.962 81.7932 146.235 81.1924 147.302 79.9908C148.37 78.7892 148.935 77.08 148.996 74.8632V74.4903Z" fill="white"/>
<path d="M164.621 83.72C163.327 83.72 162.188 83.4403 161.202 82.8809C160.237 82.3215 159.488 81.5653 158.954 80.6123C157.886 78.7892 157.352 76.676 157.352 74.2727C157.352 71.2065 158.143 68.8136 159.724 67.0941C160.278 66.4933 161.007 66.0064 161.91 65.6335C162.814 65.2606 163.84 65.0741 164.99 65.0741C166.859 65.0741 168.717 65.5506 170.565 66.5036L169.764 68.306C168.204 67.4152 166.612 66.9698 164.99 66.9698C163.964 66.9698 163.091 67.1977 162.372 67.6534C161.654 68.0885 161.11 68.6893 160.74 69.4559C160.391 70.2017 160.134 70.9683 159.97 71.7555C159.826 72.5428 159.754 73.3819 159.754 74.2727C159.754 75.1636 159.826 76.013 159.97 76.821C160.114 77.629 160.35 78.4266 160.678 79.2139C161.007 80.0012 161.51 80.633 162.188 81.1095C162.865 81.5861 163.676 81.8243 164.621 81.8243C166.715 81.8243 168.163 80.747 168.963 78.5924L170.934 79.245C169.805 82.2283 167.701 83.72 164.621 83.72Z" fill="white"/>
<path d="M188.552 74.9253H176.417C176.417 77.225 176.992 79.0171 178.142 80.3016C179.045 81.3167 180.277 81.8243 181.838 81.8243C183.419 81.8243 185.113 81.3582 186.919 80.4259L187.689 82.2283C185.616 83.2227 183.768 83.72 182.146 83.72C180.544 83.72 179.22 83.461 178.173 82.9431C177.146 82.4044 176.335 81.6896 175.74 80.7988C174.59 78.9963 174.015 76.9557 174.015 74.6767C174.015 72.0249 174.569 69.7977 175.678 67.9953C176.253 67.0837 177.033 66.3689 178.019 65.851C179.025 65.3331 180.195 65.0741 181.53 65.0741C183.727 65.0741 185.441 65.8303 186.673 67.3427C187.926 68.8551 188.552 70.875 188.552 73.4026V74.9253ZM186.119 73.1851C186.119 71.2997 185.708 69.7977 184.887 68.679C184.065 67.5395 182.885 66.9698 181.345 66.9698C179.805 66.9698 178.645 67.5602 177.865 68.7411C177.084 69.922 176.622 71.4033 176.479 73.1851H186.119Z" fill="white"/>
<path d="M41.2605 56.5591H26.9797L22.3574 46.1175L19.3909 41.2447H12.423V46.1175L13.1129 56.5591H1.79865L2.48854 46.1175V14.4443L1.79865 4.35069H19.8048C25.9219 4.35069 30.4521 5.88214 33.3957 8.94503C36.3852 11.9615 37.88 16.5559 37.88 22.7281C37.88 26.4871 37.0981 29.7588 35.5344 32.5433C34.0166 35.3277 31.9009 37.4625 29.1873 38.9475L33.6027 46.1175L41.2605 56.5591ZM12.423 31.6383H16.9073C20.8167 31.6383 23.5532 30.9886 25.117 29.6892C26.7267 28.3898 27.5316 26.0694 27.5316 22.7281C27.5316 20.4077 27.2097 18.621 26.5658 17.368C25.9219 16.115 24.841 15.2333 23.3233 14.7228C21.8515 14.2123 19.7588 13.957 17.0453 13.957H12.423V31.6383Z" fill="white"/>
<path d="M62.0758 57.3945C55.9127 57.3945 51.4055 55.5614 48.5539 51.8952C45.7023 48.229 44.2766 42.7993 44.2766 35.6062C44.2766 28.5986 45.7713 23.1921 48.7609 19.3867C51.7964 15.5813 56.2347 13.6786 62.0758 13.6786C67.8249 13.6786 72.0792 15.1404 74.8388 18.0641C77.6443 20.9878 79.2771 25.6053 79.737 31.9168L77.8743 39.2259H54.349C54.533 41.4999 54.9699 43.2402 55.6598 44.4468C56.3497 45.6534 57.3385 46.4887 58.6263 46.9528C59.9601 47.4169 61.7998 47.6489 64.1455 47.6489C67.227 47.6489 69.9635 47.3705 72.3552 46.8136C74.7928 46.2567 76.4485 45.5374 77.3224 44.6556L78.4952 45.2821L76.3565 53.7747C74.6088 55.1205 72.6311 56.0487 70.4235 56.5591C68.2158 57.116 65.4333 57.3945 62.0758 57.3945ZM69.9405 31.9168C69.9405 28.9931 69.3196 26.8351 68.0778 25.4429C66.836 24.0043 64.9273 23.285 62.3517 23.285C59.6382 23.285 57.6605 23.9347 56.4187 25.2341C55.2229 26.4871 54.51 28.7146 54.28 31.9168H69.9405Z" fill="white"/>
<path d="M84.1545 17.5768L88.5698 14.7924L90.6394 6.09097H98.2283V14.7924H109.129V24.1899H98.2283V42.5673C98.2283 44.1915 98.5732 45.4445 99.2631 46.3263C99.999 47.208 101.057 47.6489 102.437 47.6489C103.908 47.6489 105.242 47.3705 106.438 46.8136C107.68 46.2567 108.692 45.491 109.473 44.5164L110.922 45.2125L108.784 53.7747C106.898 55.2133 105.334 56.1647 104.092 56.6288C102.897 57.1392 101.425 57.3945 99.677 57.3945C97.0095 57.3945 94.8708 56.8608 93.261 55.7934C91.6513 54.6796 90.4555 52.9162 89.6736 50.503C88.9377 48.0434 88.5698 44.702 88.5698 40.4789V24.1899H84.1545V17.5768Z" fill="white"/>
<path d="M114.469 44.9341C114.469 42.2888 115.09 39.8988 116.331 37.7641C117.619 35.583 119.298 33.8659 121.368 32.6129C123.483 31.3599 125.76 30.7334 128.198 30.7334C132.429 30.7334 135.717 31.3599 138.063 32.6129V28.9235C138.063 27.16 137.35 25.791 135.924 24.8164C134.545 23.8418 132.59 23.3546 130.06 23.3546C127.347 23.3546 124.932 23.7954 122.816 24.6772C120.747 25.5589 119.16 26.8815 118.056 28.645L117.297 28.5058L118.539 18.2033C120.103 16.8111 122.035 15.7437 124.334 15.0012C126.68 14.2123 129.048 13.8178 131.44 13.8178C136.407 13.8178 140.363 15.0012 143.306 17.368C146.25 19.7348 147.722 22.9601 147.722 27.044V46.1871L148.411 56.5591H138.27L138.063 52.7305C137.143 54.2156 135.694 55.4222 133.717 56.3503C131.785 57.2321 129.646 57.6729 127.301 57.6729C123.391 57.6729 120.264 56.5359 117.918 54.262C115.619 51.988 114.469 48.8787 114.469 44.9341ZM124.403 44.3076C124.403 45.8854 124.794 47.1152 125.576 47.997C126.404 48.8323 127.6 49.25 129.163 49.25C130.865 49.25 132.475 48.9251 133.993 48.2754C135.556 47.5793 136.913 46.6047 138.063 45.3517V40.6182C135.487 39.3652 132.59 38.7387 129.37 38.7387C127.669 38.7387 126.404 39.2027 125.576 40.1309C124.794 41.059 124.403 42.4513 124.403 44.3076Z" fill="white"/>
<path d="M160.984 10.9638C159.236 10.9638 157.742 10.4765 156.5 9.50192C155.304 8.48096 154.706 7.18155 154.706 5.60369C154.706 3.97943 155.304 2.68002 156.5 1.70546C157.742 0.684494 159.236 0.174011 160.984 0.174011C162.732 0.174011 164.204 0.684494 165.399 1.70546C166.641 2.68002 167.262 3.97943 167.262 5.60369C167.262 7.18155 166.641 8.48096 165.399 9.50192C164.204 10.4765 162.732 10.9638 160.984 10.9638ZM156.086 46.1175V24.886L155.396 14.7924H166.434L165.744 24.886V46.1175L166.434 56.5591H155.396L156.086 46.1175Z" fill="white"/>
<path d="M174.684 46.1175V10.9638L173.994 0.870127H185.032L184.342 10.9638V46.1175L185.032 56.5591H173.994L174.684 46.1175Z" fill="white"/>
<g clip-path="url(#clip0_353_6532)">
<path d="M191.147 10.2621L196.179 41.3375C196.93 45.959 201.153 49.5792 205.795 49.5792H223.897L217.535 10.2621H191.147Z" fill="#F5CAC2"/>
<path d="M217.535 10.2621L223.897 49.579H250.32L243.958 10.2621H217.535Z" fill="#ED7966"/>
<path d="M272.312 17.1036V10.2621H250.828L251.935 17.1036H272.312Z" fill="#F5CAC2"/>
<path d="M272.312 49.5791V42.7376H256.083L257.19 49.5791H272.312Z" fill="#F5CAC2"/>
<path d="M272.312 33.2695V26.4281H253.444L254.551 33.2695H272.312Z" fill="#F5CAC2"/>
<path d="M196.999 74.1287C196.999 79.1775 201.07 83.285 206.074 83.285V64.9723C201.07 64.9723 196.999 69.0799 196.999 74.1287Z" fill="white"/>
<path d="M240.823 74.1287C240.823 79.1775 244.893 83.285 249.897 83.285V64.9723C244.893 64.9723 240.823 69.0799 240.823 74.1287Z" fill="white"/>
<path d="M206.074 64.9723V83.285C211.078 83.285 215.148 79.1775 215.148 74.1287C215.148 69.0799 211.078 64.9723 206.074 64.9723Z" fill="#F5CAC2"/>
<path d="M249.897 64.9723V83.285C254.901 83.285 258.972 79.1775 258.972 74.1287C258.972 69.0799 254.901 64.9723 249.897 64.9723Z" fill="#F5CAC2"/>
<path d="M250.828 10.2622L250.274 6.84144H254.572V0H242.297L243.958 10.2622L250.32 49.579L251.15 54.7101H200.389V61.5515H259.127L257.19 49.579L256.083 42.7376L254.551 33.2696L253.444 26.4281L251.935 17.1036L250.828 10.2622Z" fill="white"/>
</g>
<defs>
<clipPath id="clip0_353_6532">
<rect width="82.5406" height="83.2849" fill="white" transform="translate(190.459)"/>
</clipPath>
</defs>
</svg>
